<svg width="129" height="128" viewBox="0 0 129 128" fill="none" xmlns="http://www.w3.org/2000/svg">
<path d="M101.38 81.25C101.38 81.25 71.11 78.65 78.44 37.31C80.04 28.31 85.63 23.62 79.01 19.63C72.39 15.64 64.4 31.72 63.15 33.89C61.9 36.06 54.7 49.75 54.7 49.75C54.7 49.75 48.05 43.75 40.44 42.75C18.5 39.94 32.97 56.46 32.97 56.46C32.97 56.46 20.12 56.02 21.97 65.9C23.03 71.67 31.97 75.19 31.97 75.19C31.97 75.19 21.97 72.52 20.44 79.77C20.44 79.77 20.22 86.16 29.12 89.01C29.12 89.01 20.67 86.73 20.44 94.43C20.21 102.13 34.25 102.88 34.25 102.88C34.25 102.88 40.47 108.75 65.09 108.88C89.71 109.01 93.82 117.32 93.82 117.32L101.38 81.25Z" fill="#F9B08E"/>
<path d="M47.34 58.2603L51.11 52.4903C51.1815 52.299 51.3007 52.1291 51.4562 51.9967C51.6117 51.8643 51.7984 51.7738 51.9987 51.7338C52.199 51.6937 52.4061 51.7054 52.6006 51.7678C52.7951 51.8302 52.9704 51.9412 53.11 52.0903C54.54 53.2303 58.76 56.4303 56.11 60.0203C53.46 63.6103 48.46 60.9403 48.46 60.9403C48.46 60.9403 46.43 59.6503 47.34 58.2603Z" fill="#FDD3C0"/>
<path d="M43.92 66.5303C43.92 66.5303 41.63 72.8603 41.58 73.8303C41.5504 74.0933 41.5924 74.3594 41.7016 74.6005C41.8107 74.8417 41.9829 75.0489 42.2 75.2003C42.2 75.2003 48.65 77.2603 51.05 73.5503C53.45 69.8403 47.68 66.5503 47.68 66.5503C47.68 66.5503 45.4 64.1303 43.92 66.5303Z" fill="#FDD3C0"/>
<path d="M41.15 82.3401L39.84 88.0001C39.84 88.0001 39.61 89.4302 40.49 89.6602C41.37 89.8902 46.21 91.1001 47.93 89.2801C49.65 87.4601 49.54 86.0201 47.6 84.8201C45.66 83.6201 42.6 81.9001 42.6 81.9001C42.3407 81.8548 42.0744 81.871 41.8226 81.9474C41.5707 82.0238 41.3403 82.1583 41.15 82.3401V82.3401Z" fill="#FDD3C0"/>
<path d="M37.58 93.9999L37.24 100.11C37.2532 100.273 37.2999 100.432 37.3772 100.576C37.4545 100.721 37.5608 100.847 37.6894 100.949C37.818 101.05 37.9661 101.124 38.1245 101.165C38.2829 101.207 38.4482 101.215 38.61 101.19C39.87 101.08 45 101.25 44.43 96.9099C43.86 92.5699 38.43 93.5499 38.43 93.5499C38.43 93.5499 38.15 93.3499 37.58 93.9999Z" fill="#FDD3C0"/>
<path d="M74.33 29.14C74.33 29.14 71.67 35.22 74.33 35.83C76.99 36.44 77.33 35.83 77.75 35.15C78.17 34.47 80.03 28.33 80.59 27.15C81.92 24.4 81.33 19.53 77.75 23.26C77.75 23.28 74.79 27.92 74.33 29.14Z" fill="#FDD3C0"/>
<path d="M43.06 43.48C43.06 43.48 64.4 51.69 60.18 60.71C55.96 69.73 37.95 58.83 31.65 55.8C31.65 55.8 54.7 66 54.5 72.12C54.3 78.24 42.26 80.34 29.59 74.4C29.59 74.4 53.22 81.59 52.42 88.78C51.62 95.97 37.35 89.92 26.74 88C26.74 88 57.33 91.88 45.46 101.81C42.38 103.41 31.31 103.75 25.37 100.81" stroke="#D57D53" stroke-linecap="round" stroke-linejoin="round"/>
<path d="M58.7 68.3604C58.7 68.3604 54.7 92.7804 76.7 95.8604" stroke="#D57D53" stroke-linecap="round" stroke-linejoin="round"/>
<path d="M34.27 53.1801C34.27 53.1801 35.38 48.5401 38.84 46.3301" stroke="#D57D53" stroke-linecap="round" stroke-linejoin="round"/>
<path d="M31.72 50.9C31.8876 49.528 32.427 48.228 33.2801 47.1405C34.1332 46.053 35.2674 45.2194 36.56 44.73" stroke="#D57D53" stroke-linecap="round" stroke-linejoin="round"/>
<path d="M25.37 68.6999C25.2156 67.249 25.4204 65.7824 25.9662 64.4292C26.512 63.076 27.3822 61.8777 28.5 60.9399" stroke="#D57D53" stroke-linecap="round" stroke-linejoin="round"/>
<path d="M28.5 70.4102C28.5 70.4102 27.5 67.3302 31.36 61.4102" stroke="#D57D53" stroke-linecap="round" stroke-linejoin="round"/>
<path d="M24.34 83.4204C24.409 81.3091 25 79.2477 26.06 77.4204" stroke="#D57D53" stroke-linecap="round" stroke-linejoin="round"/>
<path d="M26.91 84.0003C26.91 84.0003 27.5 79.6503 28.5 78.5103" stroke="#D57D53" stroke-linecap="round" stroke-linejoin="round"/>
<path d="M24.34 97.8003C24.34 97.8003 21.95 94.1503 24.34 91.0703" stroke="#D57D53" stroke-linecap="round" stroke-linejoin="round"/>
<path d="M27.68 98.6001C27.68 98.6001 25.83 95.2901 26.91 92.6001" stroke="#D57D53" stroke-linecap="round" stroke-linejoin="round"/>
<path d="M70.56 46.3301C72.7597 46.082 74.9803 46.082 77.18 46.3301" stroke="#D57D53" stroke-linecap="round" stroke-linejoin="round"/>
<path d="M69.65 42.79C69.65 42.79 76.04 42.22 77.75 42.79" stroke="#D57D53" stroke-linecap="round" stroke-linejoin="round"/>
<path d="M100.96 78.8203C100.96 78.8203 100.58 74.3203 106.96 75.8203C110.638 76.6248 114.27 77.6262 117.84 78.8203C117.84 78.8203 122.94 79.1203 121.26 88.8203C119.58 98.5203 113.88 118.49 108.18 125.11C108.18 125.11 105.82 129.67 99.96 125.11C99.96 125.11 94.56 122.68 90.75 121.46C86.94 120.24 86.34 117.05 90.75 112.71C95.16 108.37 101.87 81.9403 100.96 78.8203Z" fill="url(#paint0_linear_3011_12122)"/>
<path d="M114.27 81.25C114.27 81.25 120.66 83 117.5 94.43" stroke="white" stroke-linecap="round" stroke-linejoin="round"/>
<path d="M112.759 80.6586C112.909 79.979 112.134 79.2309 111.028 78.9878C109.922 78.7447 108.905 79.0985 108.755 79.7782C108.606 80.4578 109.381 81.2059 110.487 81.449C111.592 81.6921 112.61 81.3382 112.759 80.6586Z" fill="white"/>
<path d="M98.66 37.2301C98.72 37.2801 98.78 37.3501 98.87 37.3001C98.96 37.2501 98.93 37.1501 98.87 37.0701C98.7649 36.7285 98.7483 36.3657 98.8217 36.0159C98.8952 35.666 99.0563 35.3406 99.29 35.0701C100.943 33.0701 102.61 31.0435 104.29 28.9901C104.761 28.4474 105.108 27.808 105.304 27.1168C105.501 26.4256 105.544 25.6997 105.43 24.9901C105.278 23.827 104.705 22.7598 103.82 21.9901C103.36 21.5901 102.88 21.2201 102.41 20.8301L100.15 19.0101L97.08 16.5001C97.02 16.4501 96.95 16.3801 96.86 16.4401C96.77 16.5001 96.81 16.5801 96.86 16.6601C96.9633 17.002 96.9789 17.3643 96.9055 17.7138C96.8321 18.0633 96.6721 18.3887 96.44 18.6601C96.26 18.8901 96.07 19.1101 95.89 19.3301C94.5567 20.9101 93.2667 22.4935 92.02 24.0801C91.5898 24.5471 91.2079 25.0564 90.88 25.6001C90.5202 26.2473 90.3181 26.9702 90.29 27.7101C90.2482 28.0421 90.2482 28.3781 90.29 28.7101C90.4596 29.8812 91.054 30.949 91.96 31.7101C92.81 32.4301 93.67 33.1301 94.53 33.8301C95.13 34.3001 95.72 34.8301 96.31 35.2601L98.66 37.2301Z" fill="#FAA22E"/>
<path d="M89.92 18.5902C89.98 18.6402 90.03 18.6902 90.1 18.6502C90.17 18.6102 90.16 18.5202 90.1 18.4502C90.0195 18.1607 90.0139 17.8556 90.0839 17.5634C90.1539 17.2713 90.2971 17.0017 90.5 16.7802L94.75 11.5602C95.1606 11.0964 95.4633 10.5473 95.6362 9.95243C95.8091 9.3576 95.848 8.73183 95.75 8.12017C95.6128 7.13536 95.1137 6.23697 94.35 5.60017C93.96 5.25017 93.55 4.93017 93.14 4.60017L91.21 3.00017L88.58 0.890172C88.52 0.890172 88.47 0.790172 88.39 0.840172C88.31 0.890172 88.39 0.960172 88.39 1.03017C88.4707 1.31908 88.4792 1.6234 88.4147 1.91636C88.3502 2.20931 88.2146 2.48192 88.02 2.71017C87.87 2.91017 87.7 3.10017 87.55 3.29017L84.21 7.36017C83.8345 7.75939 83.4995 8.19485 83.21 8.66017C82.901 9.21542 82.7264 9.8353 82.7 10.4702C82.6601 10.7621 82.6601 11.0582 82.7 11.3502C82.8499 12.3545 83.3578 13.2708 84.13 13.9302C84.86 14.5402 85.59 15.1402 86.33 15.7302L87.92 17.0002L89.92 18.5902Z" fill="#FAA22E"/>
<path d="M14.6 115.57C14.65 115.57 14.71 115.67 14.78 115.62C14.85 115.57 14.83 115.5 14.78 115.43C14.6979 115.142 14.6878 114.838 14.7506 114.545C14.8134 114.252 14.9471 113.979 15.14 113.75L19.4 108.54C19.8082 108.075 20.1094 107.526 20.2821 106.931C20.4549 106.337 20.4952 105.712 20.4 105.1C20.2616 104.12 19.7711 103.224 19.02 102.58C18.63 102.23 18.21 101.91 17.81 101.58L15.88 100L13.26 97.8501C13.2 97.8501 13.15 97.7501 13.07 97.8001C12.99 97.8501 13.07 97.9201 13.07 97.9901C13.1521 98.2782 13.1622 98.5821 13.0994 98.875C13.0367 99.1679 12.9029 99.441 12.71 99.6701L12.23 100.25L8.92 104.31C8.54444 104.713 8.20948 105.152 7.92 105.62C7.61219 106.172 7.43756 106.789 7.41 107.42C7.36484 107.715 7.36484 108.015 7.41 108.31C7.55335 109.314 8.06265 110.229 8.84 110.88C9.56 111.5 10.3 112.1 11.04 112.69L12.56 113.92L14.6 115.57Z" fill="#FAA22E"/>
<defs>
<linearGradient id="paint0_linear_3011_12122" x1="92.5" y1="122.69" x2="117.96" y2="78.5903" gradientUnits="userSpaceOnUse">
<stop stop-color="#FAA22E"/>
<stop offset="0.02" stop-color="#F9982E"/>
<stop offset="0.09" stop-color="#F5732E"/>
<stop offset="0.17" stop-color="#F2552E"/>
<stop offset="0.25" stop-color="#F03D2E"/>
<stop offset="0.34" stop-color="#EE2C2E"/>
<stop offset="0.43" stop-color="#ED222E"/>
<stop offset="0.55" stop-color="#ED1F2E"/>
<stop offset="0.81" stop-color="#B92028"/>
</linearGradient>
</defs>
</svg>
