<svg width="75" height="21" viewBox="0 0 75 21" fill="none" xmlns="http://www.w3.org/2000/svg">
<g clip-path="url(#clip0_3011_12257)">
<path d="M70.1068 0H4.34022C4.18322 0 4.02623 0 3.86785 0C3.52243 0.00502111 3.17786 0.0356608 2.83698 0.0916667C2.4983 0.149009 2.17036 0.257666 1.86446 0.413889C1.55677 0.571147 1.27552 0.775459 1.03087 1.01944C0.786266 1.26355 0.581826 1.54481 0.42513 1.85278C0.266963 2.16293 0.157321 2.4955 0.100031 2.83889C0.0424508 3.179 0.0117909 3.52312 0.00833588 3.86806C0 4.02778 0 4.18333 0 4.34167V16.4931C0 16.6528 0 16.8083 0.00833588 16.9681C0.0119114 17.313 0.0425705 17.6571 0.100031 17.9972C0.156825 18.3358 0.265052 18.6636 0.420962 18.9694C0.736118 19.5915 1.23989 20.098 1.86029 20.4167C2.16632 20.5732 2.49416 20.6827 2.83281 20.7417C3.17373 20.7972 3.5183 20.8274 3.86368 20.8319C4.02206 20.8319 4.17906 20.8319 4.33605 20.8319H70.6598C70.8168 20.8319 70.9765 20.8319 71.1335 20.8319C71.478 20.8277 71.8217 20.7975 72.1616 20.7417C72.5033 20.6825 72.8343 20.573 73.1439 20.4167C73.4526 20.2611 73.7341 20.0566 73.9775 19.8111C74.2233 19.5674 74.4287 19.2861 74.586 18.9778C74.7404 18.6716 74.8477 18.3438 74.9041 18.0056C74.9616 17.6654 74.9936 17.3213 75 16.9764C75 16.8167 75 16.6611 75 16.5014C75 16.3153 75 16.1292 75 15.9458V4.90278C75 4.71389 75 4.52778 75 4.34722C75 4.18889 75 4.03056 75 3.87361C74.9938 3.52865 74.9617 3.18463 74.9041 2.84444C74.8471 2.50634 74.7399 2.17864 74.586 1.87222C74.2711 1.24836 73.7681 0.739186 73.148 0.416667C72.8384 0.262047 72.5073 0.154831 72.1658 0.0986111C71.8259 0.0423007 71.4822 0.0116585 71.1377 0.00694444C70.9807 0.00694444 70.8209 0.00694444 70.664 0.00694444L70.1068 0Z" fill="#B6B6B6"/>
<path d="M4.72134 20.3127C4.55194 20.3127 4.38704 20.3127 4.21914 20.3127C3.87161 20.3085 3.52488 20.2809 3.18176 20.2299C2.86238 20.18 2.55274 20.087 2.26281 19.954C1.68679 19.6823 1.21762 19.2516 0.921105 18.7221C0.775182 18.4553 0.674091 18.1698 0.621284 17.8751C0.563963 17.5586 0.533389 17.2385 0.529838 16.9177C0.529838 16.8101 0.520844 16.4514 0.520844 16.4514V4.37945C0.520844 4.37945 0.520843 4.0263 0.529838 3.92284C0.532431 3.60158 0.562506 3.281 0.619785 2.96409C0.671908 2.66839 0.773025 2.3818 0.919606 2.11432C1.06532 1.85112 1.25615 1.61123 1.48477 1.40388C1.7131 1.19354 1.97558 1.01716 2.26281 0.881045C2.55209 0.74778 2.86128 0.654799 3.18026 0.605146C3.52426 0.553087 3.87204 0.524958 4.22064 0.520996H4.72134H70.3013H70.808C71.1536 0.523717 71.4985 0.551392 71.8394 0.603766C72.1615 0.652398 72.4738 0.745408 72.7658 0.879666C73.3432 1.15372 73.8121 1.58811 74.106 2.12121C74.2516 2.38666 74.3526 2.67083 74.4058 2.96409C74.4634 3.28338 74.4955 3.60613 74.5018 3.92974C74.5018 4.07458 74.5018 4.23047 74.5018 4.38497C74.5018 4.57672 74.5018 4.75882 74.5018 4.93677V15.89C74.5018 16.0762 74.5018 16.2569 74.5018 16.4418C74.5018 16.6266 74.5018 16.7605 74.5018 16.9177C74.4964 17.2349 74.4648 17.5513 74.4073 17.8641C74.3561 18.1608 74.2549 18.4484 74.1075 18.7166C73.8098 19.244 73.3415 19.6735 72.7673 19.9457C72.4759 20.0801 72.1641 20.1732 71.8424 20.2216C71.4993 20.2729 71.1525 20.3005 70.805 20.3044C70.6431 20.3044 70.4722 20.3044 70.3073 20.3044H4.72134V20.3127Z" fill="black"/>
<path d="M30.0982 13.7349H27.6868L27.1014 15.3304H26.0417L28.3996 9.36963H29.4004L31.8119 15.3304H30.7028L30.0982 13.7349ZM27.9938 12.9195H29.7898L29.1468 11.2125C29.0591 10.9774 28.9713 10.7165 28.8863 10.4311C28.8082 10.6838 28.7232 10.9407 28.6327 11.2044L27.9938 12.9195Z" fill="white"/>
<path d="M32.2382 11.9775C32.2382 11.6486 32.2273 11.2862 32.2053 10.8902H33.165C33.201 11.0766 33.2257 11.2649 33.239 11.4542C33.4069 11.2547 33.6164 11.0936 33.853 10.982C34.0896 10.8703 34.3479 10.8107 34.6099 10.8073C34.9172 10.8025 35.2189 10.8886 35.4766 11.0547C35.7342 11.2208 35.936 11.4593 36.0562 11.7396C36.2249 12.1251 36.305 12.5429 36.2907 12.9628C36.3011 13.4206 36.2074 13.8749 36.0165 14.2919C35.8568 14.638 35.596 14.9287 35.268 15.1264C34.9304 15.3198 34.5459 15.418 34.1561 15.4104C33.8494 15.4103 33.5449 15.3588 33.2554 15.2582V17.097L32.23 17.184L32.2382 11.9775ZM34.9335 14.243C35.1418 13.9712 35.2474 13.5635 35.2474 13.0199C35.2474 12.5243 35.1606 12.1618 34.9869 11.9326C34.9085 11.8261 34.8051 11.74 34.6857 11.6818C34.5663 11.6236 34.4345 11.5949 34.3015 11.5983C34.1099 11.5958 33.9209 11.6426 33.7531 11.7342C33.5748 11.8343 33.4126 11.9603 33.2719 12.1079V14.4863C33.3855 14.5394 33.5052 14.5786 33.6283 14.6032C33.7608 14.6316 33.8959 14.6462 34.0314 14.6467C34.2035 14.6569 34.3755 14.6255 34.5327 14.5552C34.6898 14.4848 34.8273 14.3777 34.9335 14.243V14.243Z" fill="white"/>
<path d="M36.9144 11.9775C36.9144 11.6486 36.9035 11.2862 36.8815 10.8902H37.8412C37.8784 11.0764 37.9035 11.2648 37.9166 11.4542C38.316 11.023 38.7729 10.8073 39.2875 10.8073C39.5948 10.8025 39.8965 10.8886 40.1541 11.0547C40.4118 11.2208 40.6136 11.4593 40.7338 11.7396C40.9025 12.1251 40.9825 12.5429 40.9682 12.9628C40.9808 13.4201 40.8895 13.8744 40.7009 14.2919C40.5408 14.6382 40.2796 14.9289 39.951 15.1264C39.6135 15.32 39.229 15.4182 38.8392 15.4104C38.5325 15.4103 38.228 15.3588 37.9385 15.2582V17.097L36.9131 17.184L36.9144 11.9775ZM39.6138 14.243C39.8222 13.9649 39.9263 13.5571 39.9263 13.0199C39.9263 12.5243 39.84 12.1618 39.6672 11.9326C39.5888 11.8261 39.4854 11.74 39.366 11.6818C39.2466 11.6236 39.1148 11.5949 38.9818 11.5983C38.7902 11.596 38.6013 11.6428 38.4334 11.7342C38.2551 11.8343 38.0929 11.9603 37.9522 12.1079V14.4863C38.066 14.539 38.1856 14.5782 38.3087 14.6032C38.4411 14.6316 38.5762 14.6462 38.7117 14.6467C38.8838 14.6566 39.0557 14.6251 39.2128 14.5548C39.3699 14.4845 39.5075 14.3775 39.6138 14.243V14.243Z" fill="white"/>
<path d="M42.8533 15.0492C42.4152 14.811 42.0593 14.4479 41.8319 14.0068C41.5834 13.5084 41.461 12.9575 41.4755 12.4018C41.4577 11.8071 41.5996 11.2185 41.8868 10.6962C42.146 10.2428 42.5354 9.87621 43.0054 9.64288C43.4994 9.40362 44.0433 9.28304 44.593 9.29089C44.9263 9.28946 45.2587 9.32779 45.5828 9.40505C45.8859 9.47581 46.1802 9.57973 46.4602 9.71491L46.1942 10.4964C45.7093 10.2539 45.1757 10.122 44.6327 10.1104C44.2494 10.1041 43.8712 10.1978 43.536 10.3822C43.2179 10.5632 42.9623 10.8351 42.8025 11.1623C42.6188 11.5504 42.5296 11.9759 42.5421 12.4045C42.5352 12.7906 42.6032 13.1745 42.7422 13.5352C42.8685 13.8545 43.0905 14.1278 43.3783 14.318C43.7063 14.5214 44.0886 14.6219 44.4751 14.6062C44.6754 14.6057 44.8753 14.5889 45.0728 14.5559C45.2639 14.5258 45.4517 14.4775 45.6335 14.4118V13.1995H44.2434V12.4099H46.6302V14.9228C46.2839 15.0828 45.9212 15.2054 45.5485 15.2884C45.1789 15.3728 44.8009 15.4157 44.4216 15.4162C43.8757 15.4291 43.3357 15.3028 42.8533 15.0492V15.0492Z" fill="white"/>
<path d="M50.2727 15.3306C50.2339 15.1365 50.2101 14.9398 50.2014 14.7421C50.0302 14.9397 49.8209 15.1014 49.5859 15.2178C49.3205 15.351 49.0265 15.4182 48.729 15.4135C48.4857 15.4165 48.2448 15.365 48.0244 15.2626C47.8147 15.1652 47.6394 15.0075 47.5213 14.8101C47.3903 14.5863 47.3252 14.3307 47.3334 14.0721C47.3258 13.876 47.3643 13.6808 47.4459 13.502C47.5275 13.3232 47.65 13.1657 47.8037 13.0419C48.1162 12.7846 48.6377 12.6564 49.3679 12.6573C49.6399 12.6572 49.9116 12.6763 50.1809 12.7144V12.6274C50.1809 12.236 50.0968 11.9597 49.9286 11.7984C49.7276 11.6269 49.4667 11.5405 49.202 11.5579C48.965 11.5607 48.7292 11.5927 48.5001 11.653C48.2731 11.7072 48.0519 11.7828 47.8393 11.8786L47.6776 11.1393C47.91 11.0409 48.1515 10.9649 48.3987 10.9123C48.7095 10.8426 49.0273 10.808 49.346 10.809C49.6836 10.7999 50.0196 10.8595 50.333 10.9843C50.6087 11.1052 50.8332 11.3176 50.9678 11.585C51.136 11.9431 51.2146 12.3361 51.1967 12.7307V14.4975C51.1967 14.6787 51.2077 14.9569 51.2296 15.332L50.2727 15.3306ZM49.6585 14.5152C49.8561 14.4241 50.0337 14.2953 50.1809 14.136V13.3206C49.9533 13.2939 49.7245 13.2789 49.4954 13.2757C49.0722 13.2757 48.7793 13.3437 48.6166 13.4796C48.5373 13.546 48.4742 13.6295 48.4322 13.7237C48.3901 13.8179 48.3702 13.9203 48.374 14.0232C48.3666 14.1121 48.3785 14.2016 48.409 14.2855C48.4395 14.3695 48.4879 14.4459 48.5508 14.5097C48.6845 14.6214 48.8561 14.6783 49.0307 14.6687C49.249 14.6655 49.4637 14.613 49.6585 14.5152V14.5152Z" fill="white"/>
<path d="M51.9891 14.265V9.01904L53.009 8.9375V14.0842C52.9945 14.2271 53.0288 14.3707 53.1064 14.492C53.1456 14.5337 53.1938 14.5661 53.2475 14.5866C53.3012 14.6071 53.3589 14.6151 53.4162 14.6102C53.5092 14.6062 53.6013 14.5907 53.6904 14.564L53.811 15.2924C53.6962 15.3354 53.5772 15.3664 53.456 15.3849C53.3251 15.4074 53.1926 15.4192 53.0598 15.4202C52.346 15.4157 51.9891 15.0306 51.9891 14.265Z" fill="white"/>
<path d="M54.5404 14.265V9.01904L55.5617 8.9375V14.0842C55.5472 14.2271 55.5815 14.3707 55.659 14.492C55.6982 14.5337 55.7465 14.5661 55.8002 14.5866C55.8539 14.6071 55.9116 14.6151 55.9689 14.6102C56.0619 14.6062 56.154 14.5907 56.2431 14.564L56.3623 15.2924C56.248 15.3354 56.1295 15.3664 56.0086 15.3849C55.8773 15.4074 55.7443 15.4192 55.6111 15.4202C54.8982 15.4157 54.5413 15.0306 54.5404 14.265Z" fill="white"/>
<path d="M60.5573 13.2399H57.6277C57.6743 14.1704 58.1212 14.6357 58.9685 14.6357C59.1859 14.6346 59.4025 14.609 59.6142 14.5596C59.8303 14.5097 60.0418 14.4415 60.2461 14.3557L60.471 15.0516C59.9432 15.2982 59.3654 15.4218 58.782 15.4131C58.364 15.425 57.9499 15.3315 57.5783 15.1413C57.2565 14.9688 56.9982 14.6995 56.8408 14.372C56.6668 13.9927 56.5824 13.579 56.594 13.1625C56.5827 12.726 56.6722 12.2927 56.8559 11.8958C57.0125 11.559 57.2656 11.2754 57.5838 11.0804C57.9099 10.89 58.283 10.7931 58.6614 10.8004C59.0369 10.7873 59.4073 10.8903 59.7211 11.0954C60.0041 11.2901 60.2233 11.5627 60.3517 11.8795C60.4929 12.2247 60.5628 12.5944 60.5573 12.9668V13.2399ZM59.5579 12.5944C59.5599 12.3058 59.4633 12.0251 59.2838 11.798C59.2033 11.7087 59.104 11.638 58.9929 11.591C58.8817 11.544 58.7615 11.5219 58.6408 11.5262C58.5193 11.5237 58.3986 11.5466 58.2867 11.5934C58.1747 11.6403 58.074 11.71 57.991 11.798C57.7977 12.0212 57.6793 12.2987 57.6524 12.5917L59.5579 12.5944Z" fill="white"/>
<path d="M61.3333 12.0063C61.3333 11.7631 61.3209 11.3907 61.299 10.8919H62.2587C62.2751 11.0156 62.2902 11.1637 62.3066 11.3336C62.3231 11.5035 62.3313 11.6448 62.3368 11.7522C62.44 11.579 62.5574 11.4144 62.6878 11.2602C62.8009 11.1284 62.9375 11.0183 63.0908 10.9354C63.2519 10.8492 63.4328 10.8056 63.6159 10.809C63.7547 10.8057 63.8933 10.8226 64.0271 10.8593L63.8983 11.74C63.7377 11.6939 63.5692 11.6822 63.4037 11.7056C63.2383 11.729 63.0797 11.7871 62.9386 11.8759C62.7117 12.0431 62.514 12.246 62.3532 12.4766V15.3306H61.3333V12.0063Z" fill="white"/>
<path d="M64.5975 17.1473C64.4725 17.1273 64.3492 17.0978 64.2287 17.059L64.4151 16.3183C64.5014 16.3413 64.5888 16.3599 64.677 16.374C64.7757 16.3914 64.8756 16.4005 64.9759 16.4012C65.4328 16.4012 65.7728 16.1117 65.9958 15.5328L66.063 15.3683L64.411 10.8916H65.5078L66.3468 13.3936C66.4542 13.7155 66.5412 14.0436 66.6072 14.3762C66.6854 14.0555 66.7759 13.7347 66.8814 13.414L67.7177 10.8916H68.75L67.1049 15.3887C66.9807 15.751 66.8117 16.0965 66.6018 16.4175C66.4416 16.66 66.223 16.859 65.9657 16.9965C65.6898 17.13 65.3855 17.1953 65.0787 17.1867C64.9174 17.1874 64.7564 17.1742 64.5975 17.1473V17.1473Z" fill="white"/>
<path d="M26.0417 3.69434H27.865L27.8143 4.13195H26.5736V4.97864H27.743V5.38636H26.5736V6.32411H27.8801L27.8348 6.76852H26.0417V3.69434Z" fill="white"/>
<path d="M29.1248 5.20017L28.1652 3.69434H28.7739L29.4264 4.80061L30.1119 3.69434H30.7028L29.7431 5.18114L30.7809 6.76852H30.164L29.4251 5.55896L28.6724 6.76852H28.0816L29.1248 5.20017Z" fill="white"/>
<path d="M31.1744 3.69434H32.0106C32.4027 3.69434 32.7034 3.77361 32.9127 3.93217C33.0168 4.01337 33.0996 4.1183 33.154 4.23803C33.2084 4.35776 33.2329 4.48875 33.2253 4.61985C33.2311 4.80712 33.1836 4.99222 33.0882 5.15396C32.9951 5.30602 32.8593 5.42787 32.6975 5.5046C32.5176 5.58888 32.3206 5.63074 32.1217 5.62691C31.9836 5.62498 31.846 5.61088 31.7104 5.58478V6.76852H31.1744V3.69434ZM32.5179 5.06698C32.5764 5.0113 32.622 4.94371 32.6516 4.86886C32.6811 4.79401 32.694 4.71369 32.6892 4.63344C32.6962 4.55654 32.684 4.47911 32.6536 4.408C32.6233 4.33689 32.5757 4.27429 32.5151 4.22573C32.3608 4.13258 32.1813 4.08891 32.001 4.10069H31.7104V5.18794C31.8123 5.20613 31.9154 5.21658 32.0189 5.2192C32.1986 5.23257 32.3768 5.17821 32.5179 5.06698Z" fill="white"/>
<path d="M33.7545 3.69434H34.2891V6.3146H35.5723L35.5271 6.76852H33.7545V3.69434Z" fill="white"/>
<path d="M36.3866 6.61742C36.1619 6.49208 35.9804 6.30268 35.8657 6.0738C35.741 5.82011 35.6794 5.54049 35.6861 5.25836C35.6795 4.96354 35.7454 4.67156 35.878 4.40759C35.9996 4.16965 36.1907 3.97357 36.4264 3.84495C36.6903 3.70795 36.9856 3.64144 37.2832 3.65196C37.5647 3.64447 37.8432 3.71056 38.0907 3.84359C38.314 3.96937 38.4941 4.15876 38.6075 4.38721C38.7298 4.63825 38.7904 4.91442 38.7844 5.19313C38.7918 5.49124 38.7254 5.78661 38.5911 6.05341C38.4683 6.29052 38.2775 6.4863 38.0427 6.61606C37.7835 6.75277 37.4932 6.8211 37.1996 6.81448C36.9158 6.8216 36.6351 6.75357 36.3866 6.61742V6.61742ZM37.774 6.24096C37.9252 6.14168 38.0427 5.99962 38.1113 5.83324C38.1882 5.64279 38.2259 5.43902 38.2223 5.2339C38.2257 5.03254 38.1923 4.83223 38.1236 4.64271C38.0621 4.47856 37.9522 4.33651 37.8083 4.23499C37.6414 4.13373 37.4495 4.08015 37.2538 4.08015C37.058 4.08015 36.8661 4.13373 36.6992 4.23499C36.5477 4.33923 36.4296 4.48456 36.3592 4.65358C36.2812 4.83619 36.2425 5.0329 36.2454 5.23118C36.2421 5.43546 36.2784 5.63846 36.3524 5.82917C36.418 6.00364 36.5381 6.1528 36.6952 6.25497C36.8522 6.35713 37.0381 6.40698 37.2256 6.39725C37.4203 6.402 37.6117 6.34745 37.774 6.24096V6.24096Z" fill="white"/>
<path d="M39.3807 3.69411H40.3514C40.6357 3.67415 40.9187 3.74824 41.1561 3.90476C41.2472 3.97564 41.3196 4.06726 41.3674 4.17183C41.4151 4.27641 41.4367 4.39086 41.4303 4.50546C41.4335 4.65449 41.3996 4.80199 41.3316 4.93493C41.2721 5.05149 41.189 5.15465 41.0875 5.238C40.9968 5.31061 40.895 5.36841 40.7859 5.40924L41.7456 6.76829H41.1218L40.3143 5.54514H39.9209V6.76829H39.3807V3.69411ZM40.2211 5.1483C40.3402 5.15087 40.4581 5.12525 40.5652 5.07355C40.6616 5.02764 40.7429 4.95553 40.7996 4.86561C40.8562 4.76963 40.8851 4.6601 40.8833 4.54895C40.8888 4.4848 40.8782 4.4203 40.8523 4.36123C40.8265 4.30216 40.7862 4.25039 40.7352 4.21055C40.6067 4.13078 40.456 4.09321 40.3047 4.10318H39.9168V5.15373L40.2211 5.1483Z" fill="white"/>
<path d="M42.1637 3.69434H43.9911L43.939 4.13195H42.7052V4.97864H43.8636V5.38636H42.6942V6.32411H44.0007L43.961 6.76852H42.1637V3.69434Z" fill="white"/>
<path d="M45.979 3.69434H46.5136V6.76852H45.979V3.69434Z" fill="white"/>
<path d="M47.9298 4.13739H46.9702L47.0168 3.69434H49.4296L49.3802 4.13739H48.4658V6.76852H47.9298V4.13739Z" fill="white"/>
<path d="M51.7533 6.61747C51.529 6.49205 51.348 6.30263 51.2337 6.07384C51.1079 5.8205 51.0458 5.54072 51.0527 5.25841C51.0462 4.96359 51.1121 4.67161 51.2447 4.40764C51.3666 4.16995 51.5576 3.97396 51.793 3.84499C52.0549 3.70732 52.3481 3.63897 52.6444 3.64657C52.9291 3.63897 53.2108 3.70701 53.4601 3.84363C53.6837 3.96901 53.8639 4.15851 53.9769 4.38726C54.0996 4.63819 54.1607 4.91436 54.1551 5.19318C54.1628 5.49146 54.0959 5.78698 53.9605 6.05346C53.8381 6.29086 53.6472 6.48674 53.4121 6.61611C53.153 6.75316 52.8626 6.82152 52.569 6.81453C52.2842 6.82213 52.0026 6.75409 51.7533 6.61747V6.61747ZM53.142 6.24101C53.2924 6.14127 53.4094 5.99931 53.4779 5.83329C53.5548 5.64284 53.5926 5.43907 53.5889 5.23395C53.5924 5.03259 53.5589 4.83228 53.4902 4.64276C53.4292 4.4787 53.3198 4.33663 53.1763 4.23504C53.0092 4.13366 52.817 4.08001 52.6211 4.08001C52.4251 4.08001 52.233 4.13366 52.0659 4.23504C51.9143 4.33928 51.7963 4.48461 51.7259 4.65363C51.6485 4.83643 51.6098 5.03301 51.6121 5.23123C51.6088 5.43551 51.6451 5.63851 51.719 5.82921C51.7844 5.99686 51.8984 6.14156 52.0467 6.24508C52.209 6.35128 52.4007 6.4045 52.595 6.3973C52.7891 6.40125 52.9798 6.34675 53.142 6.24101V6.24101Z" fill="white"/>
<path d="M54.7487 3.69434H55.3629L56.897 6.07676C56.8833 5.8498 56.8778 5.64186 56.8778 5.45024V3.69434H57.3741V6.76852H56.7791L55.2217 4.34804C55.2368 4.61985 55.245 4.86584 55.245 5.07921V6.76852H54.7487V3.69434Z" fill="white"/>
<path fill-rule="evenodd" clip-rule="evenodd" d="M15.3927 2.604H8.56396C5.34454 2.604 4.16666 3.78164 4.16666 7.00039V13.8326C4.16666 17.0514 5.34454 18.229 8.56396 18.229H15.3927C18.6121 18.229 19.7916 17.0514 19.7916 13.8326V7.00039C19.7949 3.78164 18.6171 2.604 15.3927 2.604Z" fill="#C8102E"/>
<path d="M7.26107 10.4165H7.67564V12.4613H7.26107V11.6306H6.32502V12.4613H5.91046V10.4165H6.32502V11.239H7.26107V10.4165ZM9.59709 11.5862C9.59709 11.9152 9.43258 12.0961 9.13318 12.0961C8.83377 12.0961 8.66598 11.9152 8.66598 11.5681V10.4165H8.25141V11.5845C8.25141 12.1586 8.57056 12.4877 9.1266 12.4877C9.68264 12.4877 10.0117 12.1586 10.0117 11.5664V10.4165H9.59709V11.5862ZM14.3876 11.8214L13.9237 10.4165H13.5831L13.1225 11.823L12.6701 10.4165H12.2292L12.9415 12.4613H13.2854L13.7476 11.119L14.2115 12.4613H14.5587L15.271 10.4165H14.84L14.3876 11.8214ZM16.0129 11.5796H16.768V11.2094H16.0129V10.7916H17.1085V10.4165H15.6049V12.4564H17.148V12.0879H16.0129V11.5796ZM17.6415 12.4564H18.0512V10.4165H17.6415V12.4564ZM10.8309 12.0336L10.645 12.458H10.2222L11.1155 10.4165H11.4807L12.3773 12.458H11.9496L11.7735 12.0353L10.8309 12.0336ZM10.9855 11.6651H11.609L11.2965 10.9347L10.9855 11.6651Z" fill="white"/>
<path d="M11.9808 7.81718C11.2911 7.81675 10.6298 7.54259 10.1422 7.05492C9.65451 6.56726 9.38035 5.90597 9.37991 5.21631H9.74677C9.74677 5.80881 9.98214 6.37704 10.4011 6.796C10.8201 7.21496 11.3883 7.45033 11.9808 7.45033C12.5733 7.45033 13.1415 7.21496 13.5605 6.796C13.9794 6.37704 14.2148 5.80881 14.2148 5.21631H14.5817C14.5812 5.90597 14.3071 6.56726 13.8194 7.05492C13.3317 7.54259 12.6705 7.81675 11.9808 7.81718V7.81718Z" fill="white"/>
</g>
<defs>
<clipPath id="clip0_3011_12257">
<rect width="75" height="20.8333" fill="white"/>
</clipPath>
</defs>
</svg>
