<svg width="75" height="21" viewBox="0 0 75 21" fill="none" xmlns="http://www.w3.org/2000/svg">
<g clip-path="url(#clip0_3011_12178)">
<path d="M70.0229 8.96132e-07H4.97992C4.78839 8.96132e-07 4.59917 8.96156e-07 4.40815 0.00104256C4.24825 0.00208423 4.08962 0.00511027 3.92818 0.00765715C3.57747 0.0117727 3.22758 0.0425406 2.88156 0.0996936C2.53602 0.158091 2.2013 0.268186 1.88874 0.426256C1.57655 0.585663 1.29129 0.792797 1.04332 1.04014C0.794047 1.28679 0.586257 1.57188 0.427943 1.88446C0.269191 2.19641 0.159112 2.5307 0.101508 2.87577C0.0433562 3.22041 0.0120642 3.56902 0.00791278 3.91848C0.00306587 4.07817 0.00255402 4.23839 0 4.39809V16.4368C0.00255402 16.5985 0.00306587 16.7552 0.00791278 16.9169C0.0120655 17.2664 0.0433575 17.615 0.101508 17.9596C0.158953 18.3049 0.269039 18.6393 0.427943 18.9514C0.586186 19.263 0.794004 19.5469 1.04332 19.7922C1.29035 20.0406 1.57579 20.2479 1.88874 20.4061C2.2013 20.5646 2.53598 20.6753 2.88156 20.7346C3.22764 20.7913 3.57749 20.8221 3.92818 20.8267C4.08962 20.8303 4.24825 20.8323 4.40815 20.8323C4.59916 20.8333 4.7884 20.8333 4.97992 20.8333H70.0229C70.2106 20.8333 70.4013 20.8333 70.5891 20.8323C70.7482 20.8323 70.9114 20.8303 71.0706 20.8267C71.4206 20.8224 71.7698 20.7916 72.1152 20.7346C72.4618 20.6749 72.7977 20.5642 73.1118 20.4061C73.4245 20.2478 73.7096 20.0405 73.9565 19.7922C74.2051 19.5459 74.4134 19.2622 74.5736 18.9514C74.7313 18.6391 74.8403 18.3047 74.8969 17.9596C74.9552 17.6149 74.9876 17.2664 74.9939 16.9169C74.9959 16.7552 74.9959 16.5985 74.9959 16.4368C75 16.2476 75 16.0594 75 15.8671V4.96674C75 4.776 75 4.58679 74.9959 4.39809C74.9959 4.23839 74.9959 4.07817 74.9939 3.91846C74.9876 3.56897 74.9552 3.22044 74.8969 2.87575C74.8402 2.53088 74.7312 2.19662 74.5736 1.88444C74.2512 1.25792 73.74 0.747931 73.1118 0.426209C72.7977 0.268526 72.4618 0.158459 72.1152 0.0996467C71.7698 0.0422419 71.4206 0.0114633 71.0706 0.00758423C70.9114 0.00504256 70.7482 0.00199048 70.5891 0.000974855C70.4013 -6.68122e-05 70.2106 8.96132e-07 70.0229 8.96132e-07Z" fill="#A6A6A6"/>
<path d="M4.40377 20.2462C4.24491 20.2462 4.08989 20.2442 3.93229 20.2407C3.60579 20.2364 3.28005 20.2082 2.95775 20.1563C2.65722 20.1049 2.36609 20.0094 2.09396 19.8728C1.82432 19.7373 1.57839 19.5597 1.36559 19.3468C1.14971 19.1364 0.969975 18.8923 0.833516 18.6242C0.695553 18.3545 0.600074 18.0653 0.550406 17.7668C0.496769 17.4461 0.467749 17.1218 0.463596 16.7967C0.460291 16.6876 0.455963 16.3242 0.455963 16.3242V4.37196C0.455963 4.37196 0.460572 4.01422 0.463622 3.90912C0.467598 3.58455 0.49645 3.26074 0.549926 2.94051C0.599686 2.6412 0.695239 2.3512 0.833276 2.08054C0.969234 1.81268 1.14797 1.56843 1.36255 1.35723C1.57689 1.14403 1.82361 0.96552 2.0937 0.828205C2.36521 0.692068 2.65579 0.597196 2.95571 0.546769C3.27907 0.494287 3.60594 0.465912 3.93357 0.461884L4.40402 0.455566H70.4637L70.9398 0.462137C71.2644 0.465966 71.5883 0.494087 71.9087 0.546262C72.2117 0.597322 72.5053 0.692855 72.7799 0.829721C73.321 1.10645 73.7613 1.54427 74.039 2.0818C74.1749 2.35059 74.2689 2.63823 74.3181 2.93495C74.3722 3.25781 74.4025 3.58416 74.4087 3.9114C74.4102 4.05793 74.4102 4.21532 74.4102 4.37196C74.4143 4.56599 74.4143 4.75066 74.4143 4.93685V15.7654C74.4143 15.9534 74.4143 16.1368 74.4102 16.3217C74.4102 16.49 74.4102 16.6441 74.4081 16.8027C74.4021 17.1241 74.3723 17.4447 74.319 17.7617C74.2704 18.0624 74.1754 18.3538 74.0375 18.6258C73.9001 18.8909 73.7214 19.1329 73.508 19.3428C73.295 19.5569 73.0486 19.7355 72.7784 19.8718C72.5045 20.0094 72.2113 20.1053 71.9087 20.1563C71.5864 20.2085 71.2607 20.2367 70.9341 20.2407C70.7814 20.2442 70.6215 20.2462 70.4662 20.2462L69.9011 20.2472L4.40377 20.2462Z" fill="black"/>
<path d="M15.1278 10.6365C15.1354 10.0576 15.2918 9.48996 15.5825 8.98643C15.8732 8.48289 16.2888 8.05983 16.7905 7.7566C16.4718 7.30911 16.0513 6.94084 15.5625 6.68104C15.0736 6.42125 14.5299 6.27708 13.9745 6.26C12.7897 6.13774 11.6411 6.95696 11.0374 6.95696C10.4219 6.95696 9.49236 6.27214 8.49137 6.29238C7.8439 6.31295 7.21289 6.49804 6.65982 6.82963C6.10675 7.16122 5.65048 7.62799 5.33548 8.18448C3.97093 10.507 4.98876 13.9203 6.29588 15.7977C6.94986 16.7169 7.71417 17.7438 8.71426 17.7074C9.69291 17.6675 10.0584 17.0939 11.2397 17.0939C12.4101 17.0939 12.753 17.7074 13.7734 17.6842C14.8235 17.6675 15.4851 16.7609 16.1162 15.8329C16.5861 15.1779 16.9476 14.4539 17.1875 13.6879C16.5774 13.4342 16.0568 13.0096 15.6905 12.467C15.3242 11.9244 15.1285 11.2878 15.1278 10.6365Z" fill="white"/>
<path d="M13.2005 5.02515C13.7731 4.34943 14.0552 3.4809 13.9869 2.604C13.1121 2.69433 12.3041 3.10534 11.7238 3.75514C11.44 4.07258 11.2227 4.44189 11.0843 4.84194C10.9458 5.242 10.8889 5.66496 10.9168 6.08665C11.3544 6.09108 11.7872 5.99785 12.1828 5.81398C12.5784 5.63011 12.9264 5.3604 13.2005 5.02515Z" fill="white"/>
<path d="M28.8506 13.7542H26.2231L25.5921 15.5683H24.4792L26.9679 8.85645H28.1242L30.613 15.5683H29.4811L28.8506 13.7542ZM26.4952 12.917H28.578L27.5512 9.97281H27.5225L26.4952 12.917Z" fill="white"/>
<path d="M35.988 13.1217C35.988 14.6423 35.1521 15.6193 33.8906 15.6193C33.571 15.6356 33.2532 15.5639 32.9736 15.4125C32.6939 15.2611 32.4637 15.0361 32.3093 14.7632H32.2854V17.187H31.2538V10.6747H32.2524V11.4886H32.2713C32.4329 11.217 32.667 10.9931 32.9488 10.8408C33.2305 10.6885 33.5495 10.6133 33.8716 10.6235C35.1472 10.6235 35.988 11.6052 35.988 13.1217ZM34.9276 13.1217C34.9276 12.1309 34.4018 11.4796 33.5995 11.4796C32.8113 11.4796 32.2811 12.1447 32.2811 13.1217C32.2811 14.1077 32.8113 14.768 33.5995 14.768C34.4018 14.768 34.9276 14.1214 34.9276 13.1217Z" fill="white"/>
<path d="M41.5193 13.1217C41.5193 14.6423 40.6834 15.6193 39.4219 15.6193C39.1024 15.6356 38.7846 15.5639 38.5049 15.4125C38.2252 15.2611 37.995 15.0361 37.8406 14.7632H37.8167V17.187H36.7851V10.6747H37.7837V11.4886H37.8026C37.9642 11.217 38.1983 10.9931 38.48 10.8408C38.7618 10.6884 39.0808 10.6133 39.4029 10.6235C40.6785 10.6235 41.5193 11.6052 41.5193 13.1217ZM40.4589 13.1217C40.4589 12.1309 39.9331 11.4796 39.1308 11.4796C38.3426 11.4796 37.8124 12.1447 37.8124 13.1217C37.8124 14.1076 38.3426 14.768 39.1308 14.768C39.9331 14.768 40.4589 14.1214 40.4589 13.1217H40.4589Z" fill="white"/>
<path d="M45.1755 13.6983C45.252 14.3639 45.916 14.8009 46.8235 14.8009C47.693 14.8009 48.3186 14.3639 48.3186 13.7637C48.3186 13.2428 47.9413 12.9308 47.0479 12.7171L46.1546 12.5075C44.8888 12.2098 44.3011 11.6334 44.3011 10.6981C44.3011 9.54006 45.3376 8.74463 46.8094 8.74463C48.266 8.74463 49.2646 9.54006 49.2982 10.6981H48.2568C48.1945 10.0283 47.6258 9.62399 46.7948 9.62399C45.9637 9.62399 45.3951 10.0331 45.3951 10.6284C45.3951 11.103 45.7583 11.3822 46.6468 11.5959L47.4062 11.7775C48.8206 12.1032 49.4082 12.6564 49.4082 13.6381C49.4082 14.8938 48.3809 15.6803 46.7471 15.6803C45.2183 15.6803 44.1862 14.9123 44.1195 13.6983L45.1755 13.6983Z" fill="white"/>
<path d="M51.6345 9.5166V10.6747H52.5902V11.4701H51.6345V14.1678C51.6345 14.5869 51.8258 14.7822 52.246 14.7822C52.3594 14.7803 52.4727 14.7725 52.5853 14.759V15.5496C52.3964 15.584 52.2044 15.5996 52.0123 15.5961C50.9948 15.5961 50.598 15.224 50.598 14.2749V11.4701H49.8672V10.6747H50.598V9.5166H51.6345Z" fill="white"/>
<path d="M53.1436 13.1219C53.1436 11.5823 54.0749 10.6147 55.5272 10.6147C56.9843 10.6147 57.9113 11.5822 57.9113 13.1219C57.9113 14.6658 56.9892 15.6291 55.5272 15.6291C54.0656 15.6291 53.1436 14.6658 53.1436 13.1219ZM56.8602 13.1219C56.8602 12.0657 56.3631 11.4424 55.5272 11.4424C54.6912 11.4424 54.1947 12.0705 54.1947 13.1219C54.1947 14.1823 54.6912 14.8009 55.5272 14.8009C56.3631 14.8009 56.8601 14.1823 56.8601 13.1219H56.8602Z" fill="white"/>
<path d="M58.7618 10.6746H59.7458V11.5075H59.7696C59.8362 11.2474 59.9927 11.0175 60.2129 10.8565C60.433 10.6955 60.7034 10.6132 60.9785 10.6234C61.0974 10.623 61.2159 10.6356 61.3319 10.6609V11.6004C61.1819 11.5558 61.0253 11.5353 60.8684 11.5397C60.7186 11.5338 60.5692 11.5595 60.4305 11.6151C60.2918 11.6707 60.1671 11.7549 60.065 11.8619C59.9628 11.9688 59.8857 12.0961 59.8388 12.2348C59.792 12.3735 59.7765 12.5205 59.7935 12.6656V15.5681H58.7618L58.7618 10.6746Z" fill="white"/>
<path d="M66.0885 14.1311C65.9497 15.0195 65.0612 15.6291 63.9245 15.6291C62.4624 15.6291 61.555 14.6753 61.555 13.1451C61.555 11.6102 62.4673 10.6147 63.8811 10.6147C65.2716 10.6147 66.146 11.5448 66.146 13.0285V13.3726H62.5963V13.4333C62.58 13.6134 62.6031 13.7949 62.6643 13.9656C62.7254 14.1363 62.8232 14.2924 62.9511 14.4235C63.0789 14.5546 63.234 14.6577 63.4059 14.7259C63.5779 14.7942 63.7628 14.8261 63.9483 14.8194C64.1921 14.8417 64.4367 14.7867 64.6459 14.6627C64.855 14.5387 65.0174 14.3522 65.109 14.1311L66.0885 14.1311ZM62.6012 12.6706H65.1138C65.1231 12.5087 65.0979 12.3467 65.0398 12.1947C64.9817 12.0427 64.8919 11.904 64.7762 11.7874C64.6604 11.6708 64.5212 11.5787 64.3671 11.517C64.2131 11.4552 64.0476 11.4252 63.8811 11.4287C63.7131 11.4277 63.5466 11.4591 63.3911 11.5211C63.2357 11.5831 63.0944 11.6745 62.9754 11.79C62.8564 11.9055 62.7621 12.0427 62.6978 12.1939C62.6336 12.345 62.6008 12.5071 62.6012 12.6706V12.6706Z" fill="white"/>
<path d="M26.3658 3.80444C26.5821 3.78933 26.7991 3.82114 27.0012 3.89759C27.2033 3.97403 27.3855 4.0932 27.5346 4.2465C27.6837 4.39979 27.796 4.5834 27.8634 4.78407C27.9308 4.98474 27.9516 5.19747 27.9243 5.40692C27.9243 6.43724 27.3524 7.02949 26.3658 7.02949H25.1694V3.80444H26.3658ZM25.6838 6.5734H26.3083C26.4629 6.58239 26.6175 6.55772 26.761 6.50117C26.9046 6.44463 27.0333 6.35764 27.1379 6.24653C27.2426 6.13543 27.3205 6.003 27.3659 5.85889C27.4113 5.71479 27.4232 5.56263 27.4006 5.41349C27.4216 5.26495 27.4085 5.11373 27.3624 4.97068C27.3162 4.82763 27.2382 4.69629 27.1338 4.58607C27.0294 4.47585 26.9012 4.38947 26.7585 4.33313C26.6158 4.27679 26.4621 4.25188 26.3083 4.26019H25.6838V6.5734Z" fill="white"/>
<path d="M28.5054 5.81163C28.4897 5.65169 28.5085 5.49031 28.5606 5.33785C28.6127 5.1854 28.6969 5.04522 28.8079 4.92633C28.9189 4.80743 29.0542 4.71243 29.2051 4.64742C29.356 4.58241 29.5192 4.54883 29.6842 4.54883C29.8492 4.54883 30.0124 4.58241 30.1633 4.64742C30.3142 4.71243 30.4495 4.80743 30.5605 4.92633C30.6715 5.04522 30.7557 5.1854 30.8078 5.33785C30.8599 5.49031 30.8787 5.65169 30.863 5.81163C30.879 5.97174 30.8605 6.13333 30.8085 6.28604C30.7565 6.43874 30.6724 6.57917 30.5613 6.6983C30.4503 6.81744 30.3149 6.91264 30.1639 6.97778C30.0128 7.04293 29.8494 7.07659 29.6842 7.07659C29.519 7.07659 29.3556 7.04293 29.2046 6.97778C29.0535 6.91264 28.9181 6.81744 28.8071 6.6983C28.6961 6.57917 28.6119 6.43874 28.5599 6.28604C28.508 6.13333 28.4894 5.97174 28.5054 5.81163ZM30.3556 5.81163C30.3556 5.28407 30.1122 4.97555 29.685 4.97555C29.2562 4.97555 29.015 5.28407 29.015 5.81163C29.015 6.34342 29.2562 6.64956 29.685 6.64956C30.1122 6.64955 30.3556 6.3413 30.3556 5.81163H30.3556Z" fill="white"/>
<path d="M33.9972 7.02951H33.4854L32.9688 5.23701H32.9298L32.4154 7.02951H31.9085L31.2195 4.5957H31.7198L32.1676 6.45284H32.2045L32.7184 4.5957H33.1916L33.7055 6.45284H33.7446L34.1902 4.5957H34.6835L33.9972 7.02951Z" fill="white"/>
<path d="M35.2631 4.59576H35.7379V4.98239H35.7748C35.8373 4.84353 35.9428 4.72712 36.0765 4.6494C36.2102 4.57167 36.3655 4.5365 36.5207 4.54878C36.6424 4.53988 36.7645 4.55773 36.878 4.60103C36.9916 4.64432 37.0937 4.71194 37.1768 4.79887C37.2599 4.88581 37.3219 4.98983 37.358 5.10324C37.3942 5.21664 37.4038 5.33653 37.3859 5.454V7.02955H36.8926V5.57462C36.8926 5.1835 36.7181 4.98899 36.3532 4.98899C36.2706 4.98525 36.1882 4.99893 36.1116 5.02911C36.0349 5.05929 35.9659 5.10524 35.9092 5.16382C35.8525 5.2224 35.8095 5.29223 35.7831 5.36851C35.7568 5.44479 35.7476 5.52572 35.7564 5.60576V7.02957H35.2631L35.2631 4.59576Z" fill="white"/>
<path d="M38.1719 3.64551H38.6652V7.02941H38.1719V3.64551Z" fill="white"/>
<path d="M39.3506 5.81167C39.3349 5.65172 39.3537 5.49034 39.4058 5.33787C39.4579 5.18541 39.5422 5.04523 39.6532 4.92633C39.7642 4.80743 39.8995 4.71243 40.0504 4.64742C40.2013 4.58241 40.3645 4.54883 40.5295 4.54883C40.6945 4.54883 40.8578 4.58241 41.0087 4.64742C41.1596 4.71243 41.2949 4.80743 41.4059 4.92633C41.5169 5.04523 41.6011 5.18541 41.6532 5.33787C41.7053 5.49034 41.7241 5.65172 41.7084 5.81167C41.7244 5.97179 41.7059 6.13339 41.6539 6.28609C41.6019 6.43879 41.5177 6.57922 41.4067 6.69835C41.2957 6.81748 41.1603 6.91267 41.0092 6.97782C40.8581 7.04296 40.6947 7.07662 40.5295 7.07662C40.3643 7.07662 40.2009 7.04296 40.0498 6.97782C39.8988 6.91267 39.7634 6.81748 39.6524 6.69835C39.5413 6.57922 39.4571 6.43879 39.4052 6.28609C39.3532 6.13339 39.3346 5.97179 39.3506 5.81167ZM41.2008 5.81167C41.2008 5.28411 40.9574 4.9756 40.5302 4.9756C40.1014 4.9756 39.8602 5.28411 39.8602 5.81168C39.8602 6.34347 40.1014 6.6496 40.5302 6.6496C40.9574 6.6496 41.2008 6.34135 41.2008 5.81167H41.2008Z" fill="white"/>
<path d="M42.2282 6.34133C42.2282 5.90323 42.5632 5.65066 43.1579 5.61477L43.835 5.57677V5.36669C43.835 5.10964 43.6604 4.96449 43.3232 4.96449C43.0478 4.96449 42.857 5.06293 42.8023 5.235H42.3247C42.3751 4.81696 42.779 4.54883 43.346 4.54883C43.9727 4.54883 44.3261 4.85259 44.3261 5.36669V7.02961H43.8512V6.68758H43.8122C43.733 6.81027 43.6217 6.91029 43.4898 6.97742C43.3579 7.04456 43.2101 7.07641 43.0614 7.06971C42.9565 7.08034 42.8504 7.06944 42.7501 7.03771C42.6497 7.00599 42.5573 6.95414 42.4788 6.88551C42.4003 6.81689 42.3374 6.733 42.2943 6.63927C42.2511 6.54554 42.2286 6.44405 42.2282 6.34133ZM43.835 6.13336V5.92988L43.2246 5.96789C42.8803 5.99032 42.7242 6.10433 42.7242 6.31889C42.7242 6.53794 42.9193 6.66541 43.1877 6.66541C43.2663 6.67316 43.3458 6.66543 43.4213 6.64268C43.4968 6.61993 43.5668 6.58262 43.6272 6.53298C43.6876 6.48334 43.7371 6.42238 43.7728 6.35373C43.8085 6.28508 43.8296 6.21013 43.835 6.13336Z" fill="white"/>
<path d="M44.9742 5.81145C44.9742 5.04241 45.3802 4.55523 46.0118 4.55523C46.168 4.54822 46.323 4.58465 46.4587 4.66026C46.5945 4.73587 46.7053 4.84754 46.7783 4.98222H46.8151V3.64551H47.3085V7.02941H46.8357V6.64488H46.7967C46.7181 6.77865 46.6034 6.88893 46.4651 6.96378C46.3267 7.03863 46.1699 7.07519 46.0118 7.06952C45.3759 7.06954 44.9742 6.58235 44.9742 5.81145ZM45.4838 5.81145C45.4838 6.32767 45.7337 6.6383 46.1516 6.6383C46.5674 6.6383 46.8244 6.32319 46.8244 5.81357C46.8244 5.30632 46.5647 4.98672 46.1516 4.98672C45.7364 4.98672 45.4838 5.29946 45.4838 5.81145H45.4838Z" fill="white"/>
<path d="M49.3497 5.81163C49.334 5.65169 49.3528 5.49031 49.4049 5.33785C49.457 5.1854 49.5412 5.04522 49.6522 4.92633C49.7632 4.80743 49.8985 4.71243 50.0494 4.64742C50.2003 4.58241 50.3635 4.54883 50.5285 4.54883C50.6935 4.54883 50.8567 4.58241 51.0076 4.64742C51.1585 4.71243 51.2938 4.80743 51.4048 4.92633C51.5158 5.04522 51.6 5.1854 51.6521 5.33785C51.7042 5.49031 51.723 5.65169 51.7073 5.81163C51.7233 5.97174 51.7047 6.13333 51.6528 6.28604C51.6008 6.43874 51.5166 6.57917 51.4056 6.6983C51.2946 6.81744 51.1592 6.91264 51.0081 6.97778C50.8571 7.04293 50.6937 7.07659 50.5285 7.07659C50.3633 7.07659 50.1999 7.04293 50.0488 6.97778C49.8978 6.91264 49.7624 6.81744 49.6514 6.6983C49.5403 6.57917 49.4562 6.43874 49.4042 6.28604C49.3522 6.13333 49.3337 5.97174 49.3497 5.81163ZM51.1999 5.81163C51.1999 5.28407 50.9565 4.97555 50.5293 4.97555C50.1005 4.97555 49.8593 5.28407 49.8593 5.81163C49.8593 6.34342 50.1005 6.64956 50.5293 6.64956C50.9565 6.64955 51.1999 6.3413 51.1999 5.81163Z" fill="white"/>
<path d="M52.3689 4.59576H52.8438V4.98239H52.8807C52.9432 4.84353 53.0487 4.72712 53.1824 4.6494C53.3161 4.57167 53.4714 4.5365 53.6266 4.54878C53.7482 4.53988 53.8703 4.55773 53.9839 4.60103C54.0975 4.64432 54.1996 4.71194 54.2827 4.79887C54.3658 4.88581 54.4277 4.98983 54.4639 5.10324C54.5001 5.21664 54.5096 5.33653 54.4918 5.454V7.02955H53.9985V5.57462C53.9985 5.1835 53.8239 4.98899 53.4591 4.98899C53.3765 4.98525 53.2941 4.99893 53.2174 5.02911C53.1408 5.05929 53.0718 5.10524 53.0151 5.16382C52.9584 5.2224 52.9154 5.29223 52.889 5.36851C52.8626 5.44479 52.8535 5.52572 52.8622 5.60576V7.02957H52.3689V4.59576Z" fill="white"/>
<path d="M57.2792 3.98975V4.60677H57.8208V5.01136H57.2792V6.26284C57.2792 6.51778 57.3871 6.62941 57.6327 6.62941C57.6956 6.62921 57.7584 6.62551 57.8208 6.61832V7.01841C57.7322 7.03385 57.6425 7.04206 57.5525 7.04296C57.0039 7.04296 56.7854 6.85505 56.7854 6.38581V5.01134H56.3886V4.60675H56.7854V3.98975H57.2792Z" fill="white"/>
<path d="M58.4946 3.64551H58.9836V4.98672H59.0226C59.0882 4.84656 59.1965 4.72949 59.3329 4.65147C59.4693 4.57345 59.6271 4.53828 59.7848 4.55073C59.9057 4.54432 60.0267 4.56399 60.139 4.60833C60.2513 4.65268 60.3521 4.7206 60.4343 4.80727C60.5166 4.89393 60.5781 4.99719 60.6147 5.10969C60.6512 5.22218 60.6617 5.34114 60.6456 5.45807V7.02941H60.1518V5.57656C60.1518 5.18782 59.9658 4.99093 59.6173 4.99093C59.5325 4.98416 59.4472 4.99551 59.3674 5.02419C59.2876 5.05286 59.2152 5.09817 59.1552 5.15694C59.0953 5.21572 59.0493 5.28653 59.0204 5.36444C58.9915 5.44234 58.9804 5.52546 58.9879 5.60796V7.0294H58.4946L58.4946 3.64551Z" fill="white"/>
<path d="M63.5221 6.37251C63.4551 6.59494 63.3099 6.78735 63.1119 6.91607C62.9139 7.04479 62.6757 7.10162 62.439 7.07663C62.2743 7.08086 62.1107 7.05015 61.9594 6.98663C61.8081 6.9231 61.6729 6.82829 61.563 6.70877C61.4532 6.58924 61.3713 6.44787 61.3232 6.29447C61.2751 6.14106 61.2618 5.9793 61.2843 5.82041C61.2624 5.66102 61.2759 5.49891 61.3239 5.34505C61.3719 5.19118 61.4533 5.04916 61.5626 4.92859C61.6719 4.80802 61.8065 4.71172 61.9573 4.6462C62.1082 4.58069 62.2717 4.5475 62.4368 4.54887C63.1323 4.54887 63.5519 5.01153 63.5519 5.77579V5.94339H61.7869V5.97031C61.7791 6.05963 61.7907 6.14953 61.8207 6.23425C61.8508 6.31897 61.8987 6.39665 61.9613 6.46229C62.024 6.52794 62.1001 6.58011 62.1847 6.61545C62.2693 6.6508 62.3605 6.66855 62.4526 6.66755C62.5706 6.68134 62.6901 6.66065 62.796 6.60811C62.9019 6.55557 62.9893 6.47356 63.0472 6.37249L63.5221 6.37251ZM61.7868 5.58816H63.0494C63.0556 5.50648 63.0442 5.42443 63.0159 5.34729C62.9876 5.27015 62.9431 5.19963 62.8851 5.14025C62.8272 5.08087 62.7571 5.03396 62.6795 5.00251C62.6018 4.97107 62.5182 4.95579 62.4341 4.95767C62.3488 4.95663 62.2641 4.97223 62.1851 5.00354C62.1061 5.03486 62.0343 5.08127 61.9739 5.14003C61.9136 5.19879 61.866 5.26871 61.8339 5.34567C61.8017 5.42264 61.7858 5.50509 61.7869 5.58816H61.7868Z" fill="white"/>
</g>
<defs>
<clipPath id="clip0_3011_12178">
<rect width="75" height="20.8333" fill="white"/>
</clipPath>
</defs>
</svg>
