<svg width="75" height="21" viewBox="0 0 75 21" fill="none" xmlns="http://www.w3.org/2000/svg">
<g clip-path="url(#clip0_3011_12214)">
<path fill-rule="evenodd" clip-rule="evenodd" d="M72.2212 20.8333H2.7788C1.24729 20.8333 0 19.6592 0 18.2292V2.60417C0 1.16895 1.24729 0 2.7788 0H72.2212C73.7513 0 75 1.16895 75 2.60417V18.2292C75 19.6592 73.7513 20.8333 72.2212 20.8333Z" fill="black"/>
<path fill-rule="evenodd" clip-rule="evenodd" d="M72.3949 0.416926C73.5991 0.416926 74.5848 1.40015 74.5848 2.60417V18.2292C74.5848 19.4332 73.6056 20.4164 72.3949 20.4164H2.60512C1.40087 20.4164 0.415216 19.4332 0.415216 18.2292V2.60417C0.415216 1.40015 1.3944 0.416926 2.60512 0.416926H72.3949ZM72.3949 0H2.60512C1.16933 0 0 1.17415 0 2.60417V18.2292C0 19.6644 1.16933 20.8333 2.60512 20.8333H72.3949C73.8294 20.8333 75 19.6644 75 18.2292V2.60417C75 1.17415 73.8294 0 72.3949 0Z" fill="#A6A6A6"/>
<path d="M39.773 6.85333C39.3168 6.85333 38.9323 6.69624 38.6281 6.38701C38.3265 6.08644 38.1581 5.67207 38.1657 5.24904C38.1657 4.79757 38.3215 4.41536 38.6281 4.11231C38.931 3.80308 39.3156 3.646 39.7718 3.646C40.2229 3.646 40.6075 3.80308 40.9167 4.11231C41.2233 4.42525 41.3792 4.80746 41.3792 5.24904C41.3741 5.70175 41.2183 6.08396 40.9167 6.38577C40.6138 6.69747 40.2292 6.85333 39.773 6.85333ZM26.1989 6.85333C25.7528 6.85333 25.3657 6.69871 25.049 6.39319C24.7348 6.08891 24.5752 5.70423 24.5752 5.25028C24.5752 4.79633 24.7348 4.41165 25.049 4.10737C25.3594 3.80185 25.7465 3.64723 26.1989 3.64723C26.4201 3.64723 26.635 3.69053 26.8411 3.77835C27.0434 3.86369 27.2081 3.97996 27.33 4.12221L27.3601 4.15808L27.0196 4.4871L26.9844 4.44628C26.7921 4.22116 26.5345 4.11108 26.1939 4.11108C25.8898 4.11108 25.6246 4.21745 25.4059 4.42773C25.186 4.63924 25.0741 4.91631 25.0741 5.25152C25.0741 5.58672 25.186 5.86379 25.4059 6.0753C25.6246 6.28558 25.8898 6.39196 26.1939 6.39196C26.5181 6.39196 26.7908 6.28558 27.0032 6.0753C27.1289 5.95161 27.2068 5.77844 27.2345 5.55951H26.1424V5.0969H27.7032L27.7095 5.13896C27.7208 5.21688 27.7321 5.29728 27.7321 5.3715C27.7321 5.79823 27.6014 6.14333 27.3426 6.39814C27.0485 6.69995 26.6639 6.85333 26.1989 6.85333ZM44.247 6.78777H43.7657L42.2915 4.46607L42.3041 4.88415V6.78653H41.8228V3.71279H42.372L42.3871 3.73629L43.7733 5.92316L43.7607 5.50632V3.71279H44.247V6.78777ZM36.1561 6.78777H35.6685V4.1754H34.8227V3.71279H37.0006V4.1754H36.1549V6.78777H36.1561ZM34.4256 6.78777H33.9392V3.71279H34.4256V6.78777ZM31.6922 6.78777H31.2058V4.1754H30.36V3.71279H32.5379V4.1754H31.6922V6.78777ZM30.0521 6.78282H28.1871V3.71279H30.0521V4.1754H28.6747V5.01898H29.9176V5.47664H28.6747V6.32021H30.0521V6.78282ZM38.985 6.06912C39.2025 6.28311 39.4664 6.39072 39.773 6.39072C40.0885 6.39072 40.3461 6.28558 40.561 6.06912C40.7747 5.85884 40.8827 5.58301 40.8827 5.25028C40.8827 4.91755 40.7747 4.64048 40.5623 4.43144C40.3448 4.21745 40.0797 4.10984 39.7743 4.10984C39.4588 4.10984 39.2012 4.21498 38.9876 4.43144C38.7739 4.64172 38.6658 4.91755 38.6658 5.25028C38.6658 5.58301 38.7727 5.86008 38.985 6.06912Z" fill="white"/>
<path fill-rule="evenodd" clip-rule="evenodd" d="M38.12 11.081C36.9324 11.081 35.9697 11.9679 35.9697 13.1912C35.9697 14.4034 36.9386 15.3014 38.12 15.3014C39.3076 15.3014 40.2703 14.4083 40.2703 13.1912C40.2703 11.9679 39.3076 11.081 38.12 11.081ZM38.12 14.4652C37.4702 14.4652 36.911 13.9358 36.911 13.1862C36.911 12.4255 37.4715 11.9073 38.12 11.9073C38.7697 11.9073 39.329 12.4255 39.329 13.1862C39.3302 13.9408 38.7697 14.4652 38.12 14.4652ZM33.4285 11.081C32.2409 11.081 31.2782 11.9679 31.2782 13.1912C31.2782 14.4034 32.2472 15.3014 33.4285 15.3014C34.6161 15.3014 35.5788 14.4083 35.5788 13.1912C35.5788 11.9679 34.6149 11.081 33.4285 11.081ZM33.4285 14.4652C32.7788 14.4652 32.2195 13.9358 32.2195 13.1862C32.2195 12.4255 32.78 11.9073 33.4285 11.9073C34.0783 11.9073 34.6375 12.4255 34.6375 13.1862C34.6375 13.9408 34.0783 14.4652 33.4285 14.4652ZM27.846 11.7254V12.6185H30.024C29.9574 13.1194 29.7889 13.4893 29.5313 13.7429C29.2121 14.057 28.7195 14.3984 27.851 14.3984C26.5126 14.3984 25.4657 13.3347 25.4657 12.0174C25.4657 10.7 26.5126 9.63628 27.851 9.63628C28.5737 9.63628 29.1002 9.91706 29.4911 10.2758L30.1346 9.64247C29.5916 9.13038 28.869 8.73828 27.8561 8.73828C26.0199 8.73828 24.4792 10.2102 24.4792 12.0124C24.4792 13.8195 26.0187 15.2865 27.8561 15.2865C28.8476 15.2865 29.5916 14.9674 30.1798 14.3663C30.7793 13.7762 30.969 12.9438 30.969 12.2722C30.969 12.0631 30.9527 11.8751 30.9188 11.7155H27.8447C27.846 11.7143 27.846 11.7254 27.846 11.7254ZM50.68 12.4206C50.5003 11.9468 49.9574 11.0761 48.8439 11.0761C47.7404 11.0761 46.823 11.9308 46.823 13.1862C46.823 14.3712 47.7304 15.2964 48.9507 15.2964C49.931 15.2964 50.5015 14.7064 50.7366 14.3601L50.0089 13.8801C49.7676 14.2327 49.432 14.464 48.9557 14.464C48.4744 14.464 48.1376 14.2488 47.9139 13.8245L50.7805 12.6556C50.7805 12.6568 50.68 12.4206 50.68 12.4206ZM47.7568 13.1256C47.7342 12.3105 48.4002 11.8961 48.8766 11.8961C49.2523 11.8961 49.5653 12.078 49.6721 12.3427L47.7568 13.1256ZM45.428 15.1703H46.3693V8.97082H45.428V15.1703ZM43.8822 11.5498H43.8483C43.6359 11.3012 43.2325 11.0761 42.7172 11.0761C41.6477 11.0761 40.6624 12.0025 40.6624 13.1924C40.6624 14.3774 41.6427 15.2927 42.7172 15.2927C43.2262 15.2927 43.6359 15.0664 43.8483 14.8128H43.8822V15.1158C43.8822 15.9211 43.4449 16.3552 42.7398 16.3552C42.163 16.3552 41.8048 15.947 41.659 15.6057L40.8409 15.9421C41.0759 16.4987 41.703 17.1877 42.7386 17.1877C43.842 17.1877 44.777 16.5482 44.777 14.9884V11.2022H43.8872V11.5498C43.8885 11.5498 43.8822 11.5498 43.8822 11.5498ZM42.8014 14.4652C42.1517 14.4652 41.6087 13.9309 41.6087 13.1924C41.6087 12.4478 42.1517 11.9085 42.8014 11.9085C43.4449 11.9085 43.9438 12.454 43.9438 13.1924C43.9501 13.9309 43.4461 14.4652 42.8014 14.4652ZM55.0874 8.97082H52.8366V15.1703H53.7779V12.8226H55.0887C56.1306 12.8226 57.1548 12.0792 57.1548 10.8992C57.1548 9.71916 56.1343 8.97082 55.0874 8.97082ZM55.1151 11.9567H53.7766V9.82924H55.1151C55.8201 9.82924 56.2185 10.4019 56.2185 10.893C56.2185 11.3791 55.8151 11.9567 55.1151 11.9567ZM60.9276 11.0699C60.2439 11.0699 59.5389 11.368 59.2473 12.0174L60.0818 12.3587C60.2615 12.0174 60.5908 11.9011 60.9389 11.9011C61.4265 11.9011 61.9192 12.188 61.9305 12.7001V12.7657C61.7621 12.6717 61.3926 12.5282 60.9502 12.5282C60.0491 12.5282 59.1355 13.0131 59.1355 13.9222C59.1355 14.7547 59.8744 15.289 60.6976 15.289C61.3298 15.289 61.6779 15.0082 61.8953 14.6829H61.9292V15.1628H62.8366V12.788C62.8366 11.6821 62.0021 11.0699 60.9276 11.0699ZM60.8095 14.4652C60.5015 14.4652 60.0705 14.3168 60.0705 13.9358C60.0705 13.4559 60.6084 13.2741 61.0671 13.2741C61.4818 13.2741 61.6779 13.3619 61.9242 13.4831C61.8563 14.0397 61.3788 14.4603 60.8095 14.4652ZM66.1469 11.2022L65.0661 13.8913H65.0322L63.9124 11.2022H62.8994L64.5797 14.9612L63.6221 17.0504H64.6023L67.1875 11.2022H66.1469ZM57.6738 15.1703H58.6152V8.97082H57.6738V15.1703Z" fill="white"/>
<path fill-rule="evenodd" clip-rule="evenodd" d="M4.44469 2.84314C4.26845 3.03249 4.16666 3.32181 4.16666 3.7005V17.1318C4.16666 17.5105 4.26845 17.7998 4.45077 17.9816L4.49787 18.0225L12.0459 10.4972V10.3291L4.49179 2.80225L4.44469 2.84314Z" fill="url(#paint0_linear_3011_12214)"/>
<path fill-rule="evenodd" clip-rule="evenodd" d="M14.5573 13.0135L12.0397 10.5035V10.3278L14.5573 7.81787L14.612 7.8512L17.5899 9.53863C18.4422 10.0173 18.4422 10.808 17.5899 11.2927L14.612 12.9802L14.5573 13.0135Z" fill="url(#paint1_linear_3011_12214)"/>
<path fill-rule="evenodd" clip-rule="evenodd" d="M14.6119 12.98L12.0396 10.4155L4.44449 17.9878C4.72253 18.2847 5.18896 18.318 5.71009 18.0287L14.6119 12.98Z" fill="url(#paint2_linear_3011_12214)"/>
<path fill-rule="evenodd" clip-rule="evenodd" d="M14.6119 7.85082L5.71009 2.80972C5.18896 2.51283 4.72101 2.55372 4.44449 2.85062L12.0396 10.4153L14.6119 7.85082Z" fill="url(#paint3_linear_3011_12214)"/>
<path opacity="0.2" fill-rule="evenodd" clip-rule="evenodd" d="M14.5572 12.9258L5.71614 17.9335C5.22236 18.2168 4.78175 18.1971 4.49763 17.9396L4.45053 17.9866L4.49763 18.0275C4.78175 18.2834 5.22236 18.3047 5.71614 18.0214L14.618 12.9803L14.5572 12.9258Z" fill="black"/>
<path opacity="0.12" fill-rule="evenodd" clip-rule="evenodd" d="M17.5899 11.2047L14.5497 12.9255L14.6044 12.98L17.5823 11.2926C18.0093 11.0502 18.2189 10.7321 18.2189 10.4155C18.1931 10.7064 17.9758 10.982 17.5899 11.2047Z" fill="black"/>
<path opacity="0.25" fill-rule="evenodd" clip-rule="evenodd" d="M5.7103 2.89778L17.59 9.62632C17.9759 9.84293 18.1931 10.1262 18.2266 10.4155C18.2266 10.0989 18.0169 9.78082 17.59 9.53846L5.7103 2.80992C4.85795 2.32369 4.16666 2.72964 4.16666 3.7006V3.78845C4.16666 2.81598 4.85795 2.4176 5.7103 2.89778Z" fill="white"/>
</g>
<defs>
<linearGradient id="paint0_linear_3011_12214" x1="11.3689" y1="3.55559" x2="-0.716945" y2="6.7856" gradientUnits="userSpaceOnUse">
<stop stop-color="#00A0FF"/>
<stop offset="0.00657" stop-color="#00A1FF"/>
<stop offset="0.2601" stop-color="#00BEFF"/>
<stop offset="0.5122" stop-color="#00D2FF"/>
<stop offset="0.7604" stop-color="#00DFFF"/>
<stop offset="1" stop-color="#00E3FF"/>
</linearGradient>
<linearGradient id="paint1_linear_3011_12214" x1="18.7014" y1="10.4157" x2="3.95935" y2="10.4157" gradientUnits="userSpaceOnUse">
<stop stop-color="#FFE000"/>
<stop offset="0.4087" stop-color="#FFBD00"/>
<stop offset="0.7754" stop-color="#FFA500"/>
<stop offset="1" stop-color="#FF9C00"/>
</linearGradient>
<linearGradient id="paint2_linear_3011_12214" x1="13.2132" y1="11.811" x2="3.5501" y2="28.1239" gradientUnits="userSpaceOnUse">
<stop stop-color="#FF3A44"/>
<stop offset="1" stop-color="#C31162"/>
</linearGradient>
<linearGradient id="paint3_linear_3011_12214" x1="2.53195" y1="-1.62443" x2="6.84303" y2="5.66116" gradientUnits="userSpaceOnUse">
<stop stop-color="#32A071"/>
<stop offset="0.0685" stop-color="#2DA771"/>
<stop offset="0.4762" stop-color="#15CF74"/>
<stop offset="0.8009" stop-color="#06E775"/>
<stop offset="1" stop-color="#00F076"/>
</linearGradient>
<clipPath id="clip0_3011_12214">
<rect width="75" height="20.8333" fill="white"/>
</clipPath>
</defs>
</svg>
