<svg width="24" height="24" viewBox="0 0 24 24" fill="none" xmlns="http://www.w3.org/2000/svg">
<path d="M6 4H15V6C16.1046 6 17 5.10457 17 4C17 2.89543 16.1046 2 15 2H6C4.89543 2 4 2.89543 4 4V16.8643C4.13617 17.1426 4.32395 17.418 4.55332 17.6687C5.06586 18.2288 5.63021 18.5 6 18.5V4Z" fill="#001A41"/>
<path d="M4 20V19.2001C4.58157 19.6657 5.28307 20 6 20H15V18C16.1046 18 17 18.8954 17 20C17 21.1046 16.1046 22 15 22H6C4.89543 22 4 21.1046 4 20Z" fill="#001A41"/>
<path d="M11.5 18C11.5 18.5523 11.0523 19 10.5 19C9.94772 19 9.5 18.5523 9.5 18C9.5 17.4477 9.94772 17 10.5 17C11.0523 17 11.5 17.4477 11.5 18Z" fill="#001A41"/>
<path d="M8 6C8 5.44772 8.44772 5 9 5H12C12.5523 5 13 5.44772 13 6C13 6.55228 12.5523 7 12 7H9C8.44772 7 8 6.55228 8 6Z" fill="#001A41"/>
<path fill-rule="evenodd" clip-rule="evenodd" d="M13 9C13 8.44772 13.4477 8 14 8H17.6198C17.8647 8 18.1011 8.08988 18.2842 8.25259L19.6644 10.4794C19.8779 10.6692 20 10.9412 20 11.2268V15C20 15.5523 19.5523 16 19 16H14C13.4477 16 13 15.5523 13 15V9ZM18 11.6759V14H15V10H17.2396L18 11.6759Z" fill="#001A41"/>
</svg>
