<svg width="129" height="128" viewBox="0 0 129 128" fill="none" xmlns="http://www.w3.org/2000/svg">
<path d="M93.4001 32.9002C93.2001 32.9002 93.0001 32.8002 92.9001 32.6002C92.9001 32.5002 90.6001 25.3002 97.0001 19.6002C99.1001 17.8002 101.1 17.2002 102.9 17.8002C103.2 17.9002 103.5 18.0002 103.7 18.2002C104.9 16.4002 106.3 14.7002 108 13.6002C110 12.3002 111.9 12.0002 113.9 12.6002C114.4 12.8002 115 13.0002 115.5 13.3002C117.1 11.4002 119.4 10.0002 122.6 9.10023C122.9 9.00023 123.1 9.20023 123.2 9.50023C123.3 9.80023 123.1 10.0002 122.8 10.1002C119.8 10.9002 117.6 12.1002 116.2 13.9002C118.5 15.9002 119.8 19.3002 119.1 22.1002C118.2 25.5002 116.5 25.6002 115.8 25.5002C114.1 25.2002 112.8 22.8002 113 20.2002C113.2 17.7002 113.7 15.7002 114.8 14.1002C114.4 13.8002 114 13.7002 113.5 13.5002C111.8 13.0002 110.1 13.3002 108.4 14.4002C106.8 15.4002 105.5 17.0002 104.4 18.7002C106.6 20.5002 107.7 23.9002 107.9 25.2002C108.2 27.0002 107.9 29.5002 106.5 31.1002C105.8 31.9002 104.8 32.4002 103.7 32.4002C103 32.4002 102.4 32.2002 102 31.6002C100.3 29.7002 100.9 25.1002 100.9 24.9002C101.1 23.2002 101.9 21.0002 103 19.0002C102.8 18.9002 102.6 18.8002 102.4 18.7002C100.9 18.2002 99.2001 18.7002 97.5001 20.3002C91.5001 25.6002 93.6001 32.0002 93.6001 32.3002C93.7001 32.6002 93.5001 32.8002 93.3001 32.9002C93.5001 32.9002 93.5001 32.9002 93.4001 32.9002ZM104.1 19.6002C103.1 21.5002 102.4 23.5002 102.2 25.1002C102 26.8002 102 29.8002 103 31.0002C103.3 31.3002 103.6 31.4002 104 31.4002C104.8 31.4002 105.5 31.1002 106 30.4002C107.1 29.1002 107.4 26.9002 107.1 25.3002C107 23.9002 105.9 21.1002 104.1 19.6002ZM115.8 14.7002C114.8 16.2002 114.3 18.0002 114.2 20.3002C114.1 22.6002 115.1 24.4002 116.2 24.6002C117.1 24.7002 117.9 23.7002 118.4 21.9002C119 19.4002 117.8 16.4002 115.8 14.7002Z" fill="#0A1C40"/>
<path d="M109.1 96.1004L104.6 79.2004L68.0001 66.3004L50.9001 99.9004L92.7001 108.8L113.8 116.6C116 117.4 118.5 116.8 120 115C124 110.3 130.3 99.9004 124.6 84.4004C124 82.8004 122.7 81.6004 121.2 81.1004C115.3 79.0004 100.3 72.9004 99.7001 64.5004C99.1001 56.8004 97.1001 48.9004 93.1001 42.3004C88.9001 35.5004 81.5001 29.8004 74.4001 26.4004C74.4001 26.4004 69.0001 26.9004 70.9001 33.8004C72.8001 40.7004 78.7001 41.7004 79.2001 47.6004C79.7001 53.5004 73.3001 67.2004 82.5001 81.0004C91.7001 94.8004 99.6001 87.6004 99.6001 87.6004" fill="#F9B08D"/>
<path d="M44.3001 85.0006C41.4001 83.8006 27.7001 78.4006 24.5001 79.6006C20.7001 81.0006 20.6001 85.8006 24.1001 87.8006C33.7001 93.4006 56.0001 101.001 56.0001 101.001" fill="#F9B08D"/>
<path d="M90.0001 52.4998C90.0001 52.4998 68.7001 44.6998 60.5001 38.5998C52.9001 32.8998 40.9001 36.1998 31.5001 35.8998C25.3001 35.7998 18.9001 34.6998 12.8001 36.1998C10.3001 36.7998 7.10006 37.9998 6.30006 40.7998C5.10005 45.1998 10.3001 47.2998 13.6001 48.5998C20.7001 51.3998 42.9001 58.0998 42.9001 58.0998C37.7001 56.5998 32.4001 55.1998 27.1001 53.9998C22.3001 52.8998 17.0001 51.9998 11.8001 51.4998C5.90006 50.9998 0.800055 55.0998 3.10005 60.2998C4.90005 64.4998 13.5001 66.8997 17.3001 67.5998C23.7001 68.8997 36.3001 72.6998 42.8001 73.3998C44.2001 75.4998 24.8001 68.6997 17.3001 67.5998C8.20005 66.2998 4.50006 71.6997 9.60006 76.1997C12.1001 78.3997 16.2001 79.3998 19.3001 80.3998C24.5001 82.1998 29.9001 83.5998 35.2001 84.8998L85.8001 97.0998" fill="#F9B08D"/>
<path d="M18.8001 63.0002C18.7001 63.0002 18.7001 63.0002 18.6001 63.0002C18.3001 62.9002 18.2001 62.6002 18.3001 62.3002C19.2001 60.2002 19.7001 56.0002 19.7001 56.0002C19.7001 55.7002 20.0001 55.5002 20.3001 55.6002C20.6001 55.6002 20.8001 55.9002 20.7001 56.2002C20.7001 56.4002 20.2001 60.5002 19.2001 62.8002C19.1001 62.9002 18.9001 63.0002 18.8001 63.0002Z" fill="#D47C54"/>
<path d="M21.8001 84.9004C21.6001 84.9004 21.4001 84.7004 21.3001 84.5004C21.3001 84.4004 20.8001 82.4004 22.1001 80.8004C23.1001 79.5004 24.9001 78.9004 27.4001 78.9004C34.3001 78.9004 39.6001 82.2004 39.8001 82.3004C40.0001 82.4004 40.1001 82.8004 40.0001 83.0004C39.9001 83.2004 39.5001 83.3004 39.3001 83.2004C39.2001 83.2004 34.0001 80.0004 27.4001 79.9004H27.3001C25.2001 79.9004 23.7001 80.4004 22.9001 81.4004C21.9001 82.6004 22.3001 84.2004 22.3001 84.2004C22.4001 84.5004 22.2001 84.7004 21.9001 84.8004C21.9001 84.9004 21.8001 84.9004 21.8001 84.9004Z" fill="#D47C54"/>
<path d="M73.5001 25.7998C73.5001 25.7998 71.4001 27.3998 74.6001 30.3998C77.8001 33.3998 78.0001 32.1998 78.4001 31.8998C78.8001 31.5998 80.0001 29.7998 80.0001 29.7998C80.0001 29.7998 75.5001 26.1998 73.5001 25.7998Z" fill="#FDD3BF"/>
<path d="M86.6 86.4006C86.5 86.4006 86.4001 86.4006 86.3001 86.3006C71.7001 75.2006 78.6 49.3006 78.7 49.0006C78.8 48.7006 79.0001 48.6006 79.3001 48.6006C79.6001 48.7006 79.7 48.9006 79.6 49.2006C79.5 49.5006 72.8001 74.7006 86.9001 85.4006C87.1001 85.6006 87.2 85.9006 87 86.1006C86.9 86.3006 86.7 86.4006 86.6 86.4006Z" fill="#D47C54"/>
<path d="M79 50.4006C78.9 50.4006 78.8 50.4006 78.8 50.3006C78.6 50.2006 78.5 49.9006 78.6 49.6006C78.7 49.4006 80.5 45.7006 75.1 41.2006C74.9 41.0006 74.9 40.7006 75 40.5006C75.2 40.3006 75.5 40.3006 75.7 40.4006C81.8 45.4006 79.5 49.9006 79.4 50.1006C79.3 50.3006 79.1 50.4006 79 50.4006Z" fill="#D47C54"/>
<path d="M6.90005 42.2005L41.5001 28.1005C43.1001 27.7005 44.8001 28.2005 45.9001 29.4005L97.5001 85.3005C99.6001 87.6005 98.8001 91.4005 95.8001 92.5005L57.3001 107.4C55.4001 108.1 50.1001 108.4 47.3001 104.4L4.40005 49.3005C2.40005 46.7005 3.70005 43.0005 6.90005 42.2005Z" fill="#010101"/>
<path d="M98.7001 83.2002V88.9002L3.40005 45.6002L3.50005 38.2002" fill="#010101"/>
<path d="M6.90005 33.0001L41.5001 22.7001C43.1001 22.3001 44.8001 22.8001 45.9001 24.0001L97.5001 79.9001C99.6001 82.2001 98.8001 86.0001 95.8001 87.1001L58.0001 101.4C54.9001 102.6 51.3001 101.6 49.3001 98.9001L4.40005 40.0001C2.40005 37.5001 3.70005 33.7001 6.90005 33.0001Z" fill="#0B1C3F"/>
<path d="M13.9001 35.9999L40.7001 27.9999C41.9001 27.6999 43.2001 28.0999 44.1001 28.9999L90.3001 79.4999C92.0001 81.2999 91.3001 84.1999 89.0001 85.0999L59.8001 96.0999C57.4001 96.9999 54.6001 96.1999 53.1001 94.1999L12.0001 41.3999C10.5001 39.3999 11.5001 36.4999 13.9001 35.9999Z" fill="#EB2230"/>
<path d="M69.0001 67.1998C68.8001 67.1998 68.6001 67.1998 68.3001 67.0998L31.1001 56.9998C29.8001 56.5998 29.0001 55.2998 29.3001 53.8998C29.6001 52.4998 31.0001 51.7998 32.4001 52.0998L69.6001 62.1998C70.9001 62.5998 71.7001 63.8998 71.4001 65.2998C71.1001 66.4998 70.1001 67.1998 69.0001 67.1998Z" fill="white"/>
<path d="M51.4001 83.4006C50.0001 83.4006 48.9001 82.3006 48.9001 80.9006V47.6006C48.9001 46.2006 50.0001 45.1006 51.4001 45.1006C52.8001 45.1006 53.9001 46.2006 53.9001 47.6006V81.0006C53.9001 82.3006 52.7001 83.4006 51.4001 83.4006Z" fill="white"/>
</svg>
