<svg width="119" height="20" viewBox="0 0 119 20" fill="none" xmlns="http://www.w3.org/2000/svg">
<g clip-path="url(#clip0_1127_34009)">
<path d="M54.0095 5.6416C49.7358 5.6416 46.6335 8.66678 46.6335 12.834C46.6335 17.0012 49.7358 20.0264 54.0095 20.0264C58.2833 20.0264 61.3855 17.0012 61.3855 12.834C61.3855 8.66678 58.2833 5.6416 54.0095 5.6416ZM54.0095 16.8074C51.8476 16.8074 50.3928 15.2112 50.3928 12.834C50.3928 10.4568 51.8457 8.8606 54.0095 8.8606C56.1714 8.8606 57.6262 10.4568 57.6262 12.834C57.6262 15.2112 56.1714 16.8074 54.0095 16.8074Z" fill="#FF0025"/>
<path d="M40.6102 12.9138C40.51 12.8929 40.5023 12.7542 40.6005 12.7276C41.352 12.528 41.9994 12.0606 42.5023 11.4506L47.1325 5.8582H42.853L37.6794 12.1214V0.0263672H33.9202V19.8097H37.6794V13.4116L42.1362 18.548C42.8993 19.4202 43.722 19.8097 44.9282 19.8097H47.6547L42.5794 14.0273C42.0611 13.4363 41.3693 13.0658 40.6102 12.9138Z" fill="#FF0025"/>
<path d="M79.7522 5.6416C77.4708 5.6416 75.9756 6.85015 75.2261 8.0587C74.5112 6.47581 73.0699 5.6416 70.9369 5.6416C69.1584 5.6416 67.8559 6.415 67.3472 7.51144C67.274 7.66915 67.1449 7.70716 67.0909 7.47723C66.8636 6.51191 65.9695 5.85823 64.9772 5.85823H63.3933V19.8079H67.1507V12.7257C67.1507 10.3086 68.1603 8.8074 69.9157 8.8074C71.409 8.8074 72.2105 9.73091 72.2105 11.3404V19.8098H75.9679V12.6972C75.9679 10.2972 76.9679 8.8055 78.7059 8.8055C80.2108 8.8055 81.0548 9.75182 81.0548 11.3385V19.8079H84.8121V10.3884C84.8121 7.59315 82.7484 5.6416 79.7522 5.6416Z" fill="#FF0025"/>
<path d="M31.2322 2.16984C31.2322 0.985987 30.2591 0.0263672 29.0587 0.0263672H27.4749V17.2539C27.4749 19.2264 28.7427 20.0264 30.1609 20.0264C30.7621 20.0264 31.3786 19.8895 31.9182 19.6444C31.3517 18.8159 31.2322 17.6416 31.2322 16.5888V2.16984Z" fill="#FF0025"/>
<path d="M9.48393 4.36355C9.48393 2.28849 7.7305 0.671387 5.72658 0.671387H2.17348C0.973056 0.671387 0 1.63101 0 2.81485V4.50987H5.64373V17.2529C5.64373 19.2253 6.95205 20.0253 8.37021 20.0253C8.97139 20.0253 9.63037 19.8885 10.1699 19.6434C9.60339 18.8149 9.48393 17.6405 9.48393 16.5878V4.36355Z" fill="#FF0025"/>
<path d="M15.1275 3.67946V0.671387H8.29877C8.19858 0.671387 8.16197 0.802503 8.24867 0.850009C9.29495 1.42388 9.95586 2.47661 10.162 3.68896C10.2487 4.20013 10.6148 4.51557 11.1466 4.51557H14.2778C14.746 4.51557 15.1275 4.14122 15.1275 3.67946Z" fill="#FF0025"/>
<path d="M93.0898 11.2872C91.2227 10.8007 90.5522 10.4017 90.5522 9.77652C90.5522 8.95372 91.24 8.48436 92.6794 8.48436C94.2979 8.48436 95.9415 9.03353 96.9435 9.75562V6.73804C95.8895 6.06535 94.1939 5.6416 92.5503 5.6416C89.082 5.6416 86.947 7.43733 86.947 9.90574C86.947 12.3741 89.082 13.4345 91.3691 14.0578C93.2709 14.6069 94.2112 14.9129 94.2112 15.7414C94.2112 16.6383 93.4752 17.1589 91.8817 17.1589C89.8257 17.1589 88.2072 16.3608 87.0511 15.3632V18.6297C88.3093 19.5019 90.057 20.0264 92.0358 20.0264C95.6833 20.0264 97.8164 18.3067 97.8164 15.6635C97.8164 12.8207 95.35 11.8592 93.0898 11.2872Z" fill="#FF0025"/>
<path d="M18.9158 5.6416C15.0621 5.6416 11.9021 8.49196 11.9021 12.891C11.9021 17.0905 14.7538 20.0264 19.5324 20.0264C21.3302 20.0264 23.0007 19.5513 24.4401 18.6772V15.5114C23.0528 16.4616 21.5113 17.0107 19.9448 17.0107C17.6075 17.0107 16.0005 16.0397 15.5111 13.8943H25.3207C25.3727 13.4649 25.4228 13.005 25.4228 12.5908C25.4208 8.0416 22.4342 5.6416 18.9158 5.6416ZM15.6363 11.3442C15.9273 9.6302 17.2433 8.41595 18.8908 8.41595C20.4496 8.41595 21.6327 9.42878 21.7945 11.3442H15.6363Z" fill="#FF0025"/>
<path d="M105.998 5.6416C102.144 5.6416 98.9839 8.49196 98.9839 12.891C98.9839 17.0905 101.836 20.0264 106.614 20.0264C108.412 20.0264 110.083 19.5513 111.522 18.6772V15.5114C110.135 16.4616 108.593 17.0107 107.027 17.0107C104.689 17.0107 103.082 16.0397 102.593 13.8943H112.402C112.454 13.4649 112.505 13.005 112.505 12.5908C112.503 8.0416 109.518 5.6416 105.998 5.6416ZM102.718 11.3442C103.009 9.6302 104.325 8.41595 105.973 8.41595C107.531 8.41595 108.714 9.42878 108.876 11.3442H102.718Z" fill="#FF0025"/>
<path d="M118.314 16.5888V2.16984C118.314 0.985987 117.341 0.0263672 116.14 0.0263672H114.557V17.2539C114.557 19.2264 115.824 20.0264 117.243 20.0264C117.844 20.0264 118.46 19.8895 119 19.6444C118.433 18.8159 118.314 17.6416 118.314 16.5888Z" fill="#FF0025"/>
</g>
<defs>
<clipPath id="clip0_1127_34009">
<rect width="119" height="20" fill="white"/>
</clipPath>
</defs>
</svg>
