<svg width="24" height="24" viewBox="0 0 24 24" fill="none" xmlns="http://www.w3.org/2000/svg">
<path fill-rule="evenodd" clip-rule="evenodd" d="M7 20H17L17 8.7241L13.0632 4H7V18.3677C6.46799 18.3676 5.90876 18.2459 5.46438 17.9421C5.30337 17.832 5.14403 17.6893 5 17.5V4C5 2.89543 5.89543 2 7 2H13.0632C13.6568 2 14.2197 2.26365 14.5997 2.71963L18.5364 7.44373C18.836 7.80316 19 8.25623 19 8.7241V20C19 21.1046 18.1046 22 17 22H7C5.89543 22 5 21.1046 5 20V19.5949C5.68645 19.899 6.39688 20 7 20ZM10 17V14H14V17H10ZM8 13C8 12.4477 8.44772 12 9 12H15C15.5523 12 16 12.4477 16 13V18C16 18.5523 15.5523 19 15 19H9C8.44772 19 8 18.5523 8 18V13Z" fill="#001A41"/>
</svg>
