<svg width="75" height="21" viewBox="0 0 75 21" fill="none" xmlns="http://www.w3.org/2000/svg">
<path d="M70.1068 0H4.34022C4.18322 0 4.02623 0 3.86785 0C3.52243 0.00502111 3.17786 0.0356608 2.83698 0.0916667C2.4983 0.149009 2.17036 0.257666 1.86446 0.413889C1.55677 0.571147 1.27552 0.775459 1.03087 1.01944C0.786266 1.26355 0.581826 1.54481 0.42513 1.85278C0.266963 2.16293 0.157321 2.4955 0.100031 2.83889C0.0424508 3.179 0.0117909 3.52312 0.00833588 3.86806C0 4.02778 0 4.18333 0 4.34167V16.4931C0 16.6528 0 16.8083 0.00833588 16.9681C0.0119114 17.313 0.0425705 17.6571 0.100031 17.9972C0.156825 18.3358 0.265052 18.6636 0.420962 18.9694C0.736118 19.5915 1.23989 20.098 1.86029 20.4167C2.16632 20.5732 2.49416 20.6827 2.83281 20.7417C3.17373 20.7972 3.5183 20.8274 3.86368 20.8319C4.02206 20.8319 4.17906 20.8319 4.33605 20.8319H70.6598C70.8168 20.8319 70.9765 20.8319 71.1335 20.8319C71.478 20.8277 71.8217 20.7975 72.1616 20.7417C72.5033 20.6825 72.8344 20.573 73.1439 20.4167C73.4526 20.2611 73.7341 20.0566 73.9775 19.8111C74.2233 19.5674 74.4287 19.2861 74.586 18.9778C74.7404 18.6716 74.8477 18.3438 74.9041 18.0056C74.9616 17.6654 74.9936 17.3213 75 16.9764C75 16.8167 75 16.6611 75 16.5014C75 16.3153 75 16.1292 75 15.9458V4.90278C75 4.71389 75 4.52778 75 4.34722C75 4.18889 75 4.03056 75 3.87361C74.9938 3.52865 74.9617 3.18463 74.9041 2.84444C74.8471 2.50634 74.7399 2.17864 74.586 1.87222C74.2711 1.24836 73.7681 0.739186 73.148 0.416667C72.8384 0.262047 72.5073 0.154831 72.1658 0.0986111C71.8259 0.0423007 71.4822 0.0116585 71.1377 0.00694444C70.9807 0.00694444 70.8209 0.00694444 70.6639 0.00694444L70.1068 0Z" fill="#B6B6B6"/>
<path d="M4.72134 20.3127C4.55194 20.3127 4.38704 20.3127 4.21914 20.3127C3.87161 20.3085 3.52488 20.2809 3.18176 20.2299C2.86238 20.18 2.55274 20.087 2.26281 19.954C1.68679 19.6823 1.21762 19.2516 0.921105 18.7221C0.775182 18.4553 0.674091 18.1698 0.621284 17.8751C0.563963 17.5586 0.533389 17.2385 0.529838 16.9177C0.529838 16.8101 0.520844 16.4514 0.520844 16.4514V4.37945C0.520844 4.37945 0.520843 4.0263 0.529838 3.92284C0.532431 3.60158 0.562506 3.281 0.619785 2.96409C0.671908 2.66839 0.773025 2.3818 0.919606 2.11432C1.06532 1.85112 1.25615 1.61123 1.48477 1.40388C1.7131 1.19354 1.97558 1.01716 2.26281 0.881045C2.55209 0.74778 2.86128 0.654799 3.18026 0.605146C3.52426 0.553087 3.87204 0.524958 4.22064 0.520996H4.72134H70.3013H70.808C71.1536 0.523717 71.4985 0.551392 71.8394 0.603766C72.1615 0.652398 72.4738 0.745408 72.7658 0.879666C73.3432 1.15372 73.8121 1.58811 74.106 2.12121C74.2516 2.38666 74.3526 2.67083 74.4058 2.96409C74.4634 3.28338 74.4955 3.60613 74.5018 3.92974C74.5018 4.07458 74.5018 4.23047 74.5018 4.38497C74.5018 4.57672 74.5018 4.75882 74.5018 4.93677V15.89C74.5018 16.0762 74.5018 16.2569 74.5018 16.4418C74.5018 16.6266 74.5018 16.7605 74.5018 16.9177C74.4964 17.2349 74.4648 17.5513 74.4073 17.8641C74.356 18.1608 74.2549 18.4484 74.1075 18.7166C73.8098 19.244 73.3415 19.6735 72.7673 19.9457C72.4759 20.0801 72.1641 20.1732 71.8424 20.2216C71.4993 20.2729 71.1525 20.3005 70.805 20.3044C70.6431 20.3044 70.4722 20.3044 70.3073 20.3044H4.72134V20.3127Z" fill="url(#paint0_linear_3011_12235)"/>
<path fill-rule="evenodd" clip-rule="evenodd" d="M15.3927 2.60449H8.56396C5.34454 2.60449 4.16666 3.78212 4.16666 7.00087V13.8331C4.16666 17.0519 5.34454 18.2295 8.56396 18.2295H15.3927C18.6121 18.2295 19.7916 17.0519 19.7916 13.8331V7.00087C19.7949 3.78212 18.6171 2.60449 15.3927 2.60449Z" fill="#62C9A9"/>
<path fill-rule="evenodd" clip-rule="evenodd" d="M15.1772 5.85022C15.3981 6.03437 15.428 6.36279 15.2438 6.58377C14.7479 7.17889 13.8242 7.88403 12.6281 8.09163C11.401 8.30459 9.96085 7.98072 8.50088 6.63305C8.28951 6.43794 8.27633 6.10843 8.47144 5.89707C8.66654 5.6857 8.99605 5.67252 9.20742 5.86763C10.4558 7.01996 11.5764 7.21692 12.45 7.0653C13.3546 6.90831 14.0715 6.36346 14.4436 5.91691C14.6278 5.69593 14.9562 5.66608 15.1772 5.85022Z" fill="white"/>
<path d="M11.9792 10.9378C11.9792 10.2187 12.5621 9.63574 13.2812 9.63574C14.0004 9.63574 14.5833 10.2187 14.5833 10.9378C14.5833 11.6569 14.0004 12.2399 13.2812 12.2399H11.9792V10.9378Z" fill="white"/>
<path d="M11.9792 14.0627C11.9792 14.7818 12.5621 15.3647 13.2812 15.3647C14.0004 15.3647 14.5833 14.7818 14.5833 14.0627C14.5833 13.3435 14.0004 12.7606 13.2812 12.7606H11.9792V14.0627Z" fill="#E0F4EE"/>
<path d="M11.4583 10.9378C11.4583 10.2187 10.8754 9.63574 10.1562 9.63574C9.43711 9.63574 8.85415 10.2187 8.85415 10.9378C8.85415 11.6569 9.43711 12.2399 10.1562 12.2399H11.4583V10.9378Z" fill="#A1DFCB"/>
<path d="M11.4583 14.0627C11.4583 14.7818 10.8754 15.3647 10.1562 15.3647C9.43711 15.3647 8.85415 14.7818 8.85415 14.0627C8.85415 13.3435 9.43711 12.7606 10.1562 12.7606H11.4583V14.0627Z" fill="#C0E9DD"/>
<path d="M26.0417 7.40114L27.517 3.646H28.0646L29.6369 7.40114H29.0578L28.6097 6.26384H27.0034L26.5815 7.40114H26.0417ZM27.1501 5.85912H28.4524L28.0515 4.81916C27.9292 4.50324 27.8384 4.24368 27.779 4.04047C27.7301 4.28125 27.6611 4.52032 27.572 4.75768L27.1501 5.85912Z" fill="#BBBEBD"/>
<path d="M30.6562 7.40114L29.5976 4.68084H30.0954L30.6929 6.30995C30.7575 6.48584 30.8169 6.66856 30.8711 6.85811C30.913 6.71466 30.9715 6.54219 31.0467 6.34068L31.6651 4.68084H32.1499L31.0965 7.40114H30.6562Z" fill="#BBBEBD"/>
<path d="M34.3825 7.06559C34.2078 7.21074 34.0392 7.3132 33.8767 7.37297C33.716 7.43273 33.5431 7.46262 33.3579 7.46262C33.0522 7.46262 32.8172 7.39004 32.653 7.24489C32.4888 7.09803 32.4067 6.91104 32.4067 6.68392C32.4067 6.55073 32.4372 6.42948 32.4984 6.32019C32.5613 6.20919 32.6425 6.1204 32.7421 6.0538C32.8434 5.9872 32.9569 5.93682 33.0827 5.90267C33.1753 5.87876 33.3151 5.85571 33.502 5.83351C33.8828 5.78911 34.1632 5.73617 34.3432 5.6747C34.3449 5.61151 34.3458 5.57138 34.3458 5.55431C34.3458 5.36646 34.3012 5.23412 34.2121 5.15728C34.0916 5.05311 33.9125 5.00102 33.6749 5.00102C33.4531 5.00102 33.2889 5.03945 33.1823 5.11629C33.0775 5.19143 32.9997 5.32548 32.9491 5.51845L32.4879 5.45697C32.5298 5.264 32.5988 5.10861 32.6949 4.99078C32.791 4.87124 32.9299 4.77988 33.1116 4.7167C33.2932 4.65181 33.5037 4.61936 33.7431 4.61936C33.9807 4.61936 34.1737 4.64669 34.3222 4.70133C34.4707 4.75598 34.5799 4.82514 34.6497 4.90881C34.7196 4.99078 34.7685 5.09495 34.7965 5.22131C34.8122 5.29987 34.8201 5.4416 34.8201 5.64652V6.26128C34.8201 6.6899 34.8297 6.96142 34.8489 7.07583C34.8699 7.18854 34.91 7.29697 34.9694 7.40114H34.4768C34.4279 7.30551 34.3964 7.19366 34.3825 7.06559ZM34.3432 6.03587C34.172 6.10417 33.9152 6.16223 33.5727 6.21005C33.3788 6.23737 33.2417 6.26811 33.1613 6.30226C33.081 6.33642 33.019 6.38679 32.9753 6.45339C32.9316 6.51828 32.9098 6.59086 32.9098 6.67112C32.9098 6.79407 32.9569 6.89653 33.0513 6.9785C33.1474 7.06046 33.2871 7.10145 33.4706 7.10145C33.6522 7.10145 33.8138 7.06302 33.9553 6.98618C34.0968 6.90763 34.2008 6.8009 34.2672 6.66599C34.3178 6.56183 34.3432 6.40814 34.3432 6.20493V6.03587Z" fill="#BBBEBD"/>
<path d="M35.5564 4.17622V3.646H36.0281V4.17622H35.5564ZM35.5564 7.40114V4.68084H36.0281V7.40114H35.5564Z" fill="#BBBEBD"/>
<path d="M36.7382 7.40114V3.646H37.2099V7.40114H36.7382Z" fill="#BBBEBD"/>
<path d="M39.7596 7.06559C39.5849 7.21074 39.4163 7.3132 39.2538 7.37297C39.0931 7.43273 38.9202 7.46262 38.735 7.46262C38.4293 7.46262 38.1943 7.39004 38.0301 7.24489C37.8659 7.09803 37.7838 6.91104 37.7838 6.68392C37.7838 6.55073 37.8143 6.42948 37.8755 6.32019C37.9384 6.20919 38.0196 6.1204 38.1192 6.0538C38.2205 5.9872 38.3341 5.93682 38.4598 5.90267C38.5524 5.87876 38.6922 5.85571 38.8791 5.83351C39.2599 5.78911 39.5403 5.73617 39.7203 5.6747C39.722 5.61151 39.7229 5.57138 39.7229 5.55431C39.7229 5.36646 39.6783 5.23412 39.5892 5.15728C39.4687 5.05311 39.2896 5.00102 39.0521 5.00102C38.8302 5.00102 38.666 5.03945 38.5594 5.11629C38.4546 5.19143 38.3769 5.32548 38.3262 5.51845L37.865 5.45697C37.9069 5.264 37.9759 5.10861 38.072 4.99078C38.1681 4.87124 38.307 4.77988 38.4887 4.7167C38.6703 4.65181 38.8808 4.61936 39.1202 4.61936C39.3578 4.61936 39.5508 4.64669 39.6993 4.70133C39.8478 4.75598 39.957 4.82514 40.0268 4.90881C40.0967 4.99078 40.1456 5.09495 40.1736 5.22131C40.1893 5.29987 40.1972 5.4416 40.1972 5.64652V6.26128C40.1972 6.6899 40.2068 6.96142 40.226 7.07583C40.247 7.18854 40.2871 7.29697 40.3465 7.40114H39.8539C39.805 7.30551 39.7735 7.19366 39.7596 7.06559ZM39.7203 6.03587C39.5491 6.10417 39.2923 6.16223 38.9499 6.21005C38.7559 6.23737 38.6188 6.26811 38.5384 6.30226C38.4581 6.33642 38.3961 6.38679 38.3524 6.45339C38.3087 6.51828 38.2869 6.59086 38.2869 6.67112C38.2869 6.79407 38.3341 6.89653 38.4284 6.9785C38.5245 7.06046 38.6642 7.10145 38.8477 7.10145C39.0293 7.10145 39.1909 7.06302 39.3324 6.98618C39.4739 6.90763 39.5779 6.8009 39.6443 6.66599C39.6949 6.56183 39.7203 6.40814 39.7203 6.20493V6.03587Z" fill="#BBBEBD"/>
<path d="M41.3659 7.40114H40.9283V3.646H41.3999V4.98566C41.5991 4.74146 41.8533 4.61936 42.1625 4.61936C42.3337 4.61936 42.4953 4.65352 42.6473 4.72182C42.801 4.78842 42.9268 4.8832 43.0246 5.00615C43.1242 5.12739 43.2019 5.27425 43.2578 5.44672C43.3137 5.6192 43.3417 5.80363 43.3417 6.00001C43.3417 6.4662 43.2238 6.82651 42.9879 7.08096C42.7521 7.3354 42.4691 7.46262 42.1389 7.46262C41.8105 7.46262 41.5528 7.32857 41.3659 7.06046V7.40114ZM41.3606 6.0205C41.3606 6.34666 41.4061 6.58232 41.4969 6.72747C41.6454 6.96483 41.8463 7.08352 42.0996 7.08352C42.3057 7.08352 42.4839 6.99643 42.6342 6.82224C42.7844 6.64636 42.8595 6.38508 42.8595 6.03843C42.8595 5.68324 42.787 5.42111 42.642 5.25205C42.4988 5.08299 42.325 4.99846 42.1206 4.99846C41.9144 4.99846 41.7362 5.08641 41.586 5.2623C41.4358 5.43648 41.3606 5.68921 41.3606 6.0205Z" fill="#BBBEBD"/>
<path d="M43.9077 7.40114V3.646H44.3794V7.40114H43.9077Z" fill="#BBBEBD"/>
<path d="M47.0181 6.52511L47.5055 6.58403C47.4287 6.86237 47.2863 7.07839 47.0784 7.23208C46.8705 7.38577 46.605 7.46262 46.2818 7.46262C45.8748 7.46262 45.5516 7.34052 45.3122 7.09632C45.0747 6.85042 44.9559 6.50633 44.9559 6.06404C44.9559 5.60639 45.0764 5.2512 45.3175 4.99846C45.5586 4.74573 45.8713 4.61936 46.2556 4.61936C46.6277 4.61936 46.9317 4.74317 47.1675 4.99078C47.4033 5.23839 47.5213 5.58675 47.5213 6.03587C47.5213 6.06319 47.5204 6.10417 47.5186 6.15882H45.4433C45.4607 6.45766 45.5472 6.68649 45.7027 6.8453C45.8582 7.00411 46.0521 7.08352 46.2844 7.08352C46.4574 7.08352 46.605 7.03912 46.7273 6.95032C46.8496 6.86152 46.9465 6.71978 47.0181 6.52511ZM45.4695 5.77972H47.0234C47.0024 5.55089 46.943 5.37927 46.8452 5.26486C46.6949 5.08726 46.5002 4.99846 46.2608 4.99846C46.0442 4.99846 45.8617 5.06933 45.7132 5.21107C45.5664 5.3528 45.4852 5.54235 45.4695 5.77972Z" fill="#BBBEBD"/>
<path d="M49.4184 6.04099C49.4184 5.53723 49.5617 5.16411 49.8482 4.92162C50.0875 4.72011 50.3793 4.61936 50.7234 4.61936C51.106 4.61936 51.4187 4.74231 51.6615 4.98822C51.9043 5.23241 52.0258 5.57053 52.0258 6.00257C52.0258 6.35264 51.9716 6.62843 51.8633 6.82993C51.7567 7.02973 51.6004 7.18512 51.3942 7.29612C51.1898 7.40712 50.9662 7.46262 50.7234 7.46262C50.3338 7.46262 50.0185 7.34052 49.7774 7.09632C49.5381 6.85213 49.4184 6.50035 49.4184 6.04099ZM49.9032 6.04099C49.9032 6.38935 49.981 6.65062 50.1364 6.82481C50.2919 6.99728 50.4876 7.08352 50.7234 7.08352C50.9575 7.08352 51.1523 6.99643 51.3078 6.82224C51.4632 6.64806 51.541 6.38252 51.541 6.02562C51.541 5.68921 51.4624 5.43477 51.3051 5.2623C51.1497 5.08812 50.9558 5.00102 50.7234 5.00102C50.4876 5.00102 50.2919 5.08726 50.1364 5.25974C49.981 5.43221 49.9032 5.69263 49.9032 6.04099Z" fill="#BBBEBD"/>
<path d="M52.5813 7.40114V4.68084H53.0058V5.06762C53.2102 4.76878 53.5054 4.61936 53.8915 4.61936C54.0592 4.61936 54.2129 4.64925 54.3527 4.70901C54.4942 4.76708 54.5999 4.84392 54.6698 4.93955C54.7396 5.03518 54.7886 5.14874 54.8165 5.28023C54.834 5.36561 54.8427 5.51503 54.8427 5.72849V7.40114H54.371V5.74642C54.371 5.55858 54.3527 5.41855 54.316 5.32633C54.2793 5.23241 54.2138 5.15813 54.1195 5.10348C54.0269 5.04713 53.9177 5.01896 53.7919 5.01896C53.591 5.01896 53.4172 5.08128 53.2705 5.20594C53.1255 5.3306 53.053 5.56711 53.053 5.91548V7.40114H52.5813Z" fill="#BBBEBD"/>
<path d="M58.092 6.98874L58.1602 7.39602C58.0274 7.42334 57.9086 7.437 57.8038 7.437C57.6326 7.437 57.4998 7.41053 57.4055 7.3576C57.3111 7.30466 57.2448 7.2355 57.2063 7.15012C57.1679 7.06302 57.1487 6.88116 57.1487 6.60452V5.03945H56.8028V4.68084H57.1487V4.00717L57.6177 3.73053V4.68084H58.092V5.03945H57.6177V6.63013C57.6177 6.76162 57.6256 6.84615 57.6413 6.88372C57.6588 6.92129 57.6859 6.95117 57.7226 6.97337C57.761 6.99557 57.8151 7.00667 57.885 7.00667C57.9374 7.00667 58.0064 7.0007 58.092 6.98874Z" fill="#BBBEBD"/>
<path d="M58.5559 7.40114V3.646H59.0275V4.99334C59.2476 4.74402 59.5254 4.61936 59.8608 4.61936C60.067 4.61936 60.246 4.65949 60.398 4.73975C60.55 4.81831 60.6583 4.9276 60.7229 5.06762C60.7893 5.20765 60.8225 5.41086 60.8225 5.67726V7.40114H60.3508V5.67726C60.3508 5.44672 60.2993 5.27937 60.1962 5.17521C60.0949 5.06933 59.9508 5.01639 59.7639 5.01639C59.6241 5.01639 59.4922 5.05225 59.3682 5.12398C59.2459 5.19399 59.1585 5.28962 59.1061 5.41086C59.0537 5.53211 59.0275 5.69946 59.0275 5.91292V7.40114H58.5559Z" fill="#BBBEBD"/>
<path d="M63.4482 6.52511L63.9356 6.58403C63.8587 6.86237 63.7163 7.07839 63.5084 7.23208C63.3006 7.38577 63.035 7.46262 62.7118 7.46262C62.3048 7.46262 61.9816 7.34052 61.7423 7.09632C61.5047 6.85042 61.3859 6.50633 61.3859 6.06404C61.3859 5.60639 61.5064 5.2512 61.7475 4.99846C61.9886 4.74573 62.3013 4.61936 62.6856 4.61936C63.0577 4.61936 63.3617 4.74317 63.5975 4.99078C63.8334 5.23839 63.9513 5.58675 63.9513 6.03587C63.9513 6.06319 63.9504 6.10417 63.9487 6.15882H61.8733C61.8908 6.45766 61.9772 6.68649 62.1327 6.8453C62.2882 7.00411 62.4821 7.08352 62.7145 7.08352C62.8874 7.08352 63.035 7.03912 63.1573 6.95032C63.2796 6.86152 63.3766 6.71978 63.4482 6.52511ZM61.8995 5.77972H63.4534C63.4325 5.55089 63.3731 5.37927 63.2752 5.26486C63.125 5.08726 62.9302 4.99846 62.6909 4.99846C62.4743 4.99846 62.2917 5.06933 62.1432 5.21107C61.9965 5.3528 61.9152 5.54235 61.8995 5.77972Z" fill="#BBBEBD"/>
<path d="M31.6837 15.6419H30.4486L29.9577 14.3675H27.7101L27.246 15.6419H26.0417L28.2317 10.0317H29.4322L31.6837 15.6419ZM29.5933 13.4223L28.8186 11.3405L28.0591 13.4223H29.5933Z" fill="white"/>
<path d="M32.2513 11.5778H33.2562V12.1748C33.3866 11.9707 33.5631 11.8048 33.7855 11.6773C34.008 11.5497 34.2547 11.4859 34.5258 11.4859C34.9988 11.4859 35.4003 11.6709 35.7301 12.0408C36.06 12.4107 36.2249 12.9261 36.2249 13.5869C36.2249 14.2655 36.0587 14.7936 35.7263 15.1712C35.3939 15.5462 34.9912 15.7337 34.5181 15.7337C34.2931 15.7337 34.0885 15.6891 33.9044 15.5998C33.7229 15.5105 33.5311 15.3574 33.3291 15.1406V17.1879H32.2513V11.5778ZM33.3176 13.5409C33.3176 13.9976 33.4084 14.3356 33.5899 14.555C33.7715 14.7719 33.9927 14.8803 34.2535 14.8803C34.5041 14.8803 34.7125 14.7808 34.8787 14.5818C35.0449 14.3803 35.128 14.0512 35.128 13.5945C35.128 13.1685 35.0423 12.8521 34.871 12.6455C34.6997 12.4388 34.4874 12.3355 34.2343 12.3355C33.9709 12.3355 33.7523 12.4375 33.5784 12.6416C33.4045 12.8432 33.3176 13.1429 33.3176 13.5409Z" fill="white"/>
<path d="M37.0534 11.5778H38.0583V12.1748C38.1887 11.9707 38.3651 11.8048 38.5876 11.6773C38.81 11.5497 39.0568 11.4859 39.3278 11.4859C39.8009 11.4859 40.2023 11.6709 40.5322 12.0408C40.862 12.4107 41.027 12.9261 41.027 13.5869C41.027 14.2655 40.8608 14.7936 40.5284 15.1712C40.1959 15.5462 39.7932 15.7337 39.3202 15.7337C39.0952 15.7337 38.8906 15.6891 38.7065 15.5998C38.5249 15.5105 38.3332 15.3574 38.1312 15.1406V17.1879H37.0534V11.5778ZM38.1197 13.5409C38.1197 13.9976 38.2104 14.3356 38.392 14.555C38.5735 14.7719 38.7947 14.8803 39.0555 14.8803C39.3061 14.8803 39.5145 14.7808 39.6807 14.5818C39.8469 14.3803 39.93 14.0512 39.93 13.5945C39.93 13.1685 39.8444 12.8521 39.673 12.6455C39.5017 12.4388 39.2895 12.3355 39.0363 12.3355C38.773 12.3355 38.5543 12.4375 38.3805 12.6416C38.2066 12.8432 38.1197 13.1429 38.1197 13.5409Z" fill="white"/>
<path d="M44.0647 15.6419V10.0317H45.7638L46.7841 13.8586L47.7928 10.0317H49.4958V15.6419H48.441V11.2257L47.3249 15.6419H46.2317L45.1195 11.2257V15.6419H44.0647Z" fill="white"/>
<path d="M51.4212 12.8177L50.4431 12.6416C50.5531 12.2487 50.7423 11.9579 51.0108 11.7691C51.2793 11.5803 51.6782 11.4859 52.2075 11.4859C52.6882 11.4859 53.0462 11.5433 53.2814 11.6581C53.5166 11.7704 53.6816 11.9145 53.7762 12.0906C53.8733 12.2641 53.9219 12.5842 53.9219 13.0511L53.9104 14.3063C53.9104 14.6635 53.927 14.9275 53.9603 15.0985C53.9961 15.2668 54.0613 15.448 54.1559 15.6419H53.0896C53.0615 15.5704 53.027 15.4646 52.9861 15.3242C52.9682 15.2605 52.9554 15.2184 52.9477 15.198C52.7636 15.3765 52.5667 15.5105 52.357 15.5998C52.1474 15.6891 51.9236 15.7337 51.6858 15.7337C51.2665 15.7337 50.9354 15.6202 50.6924 15.3931C50.4521 15.1661 50.3319 14.8791 50.3319 14.5321C50.3319 14.3025 50.3869 14.0984 50.4968 13.9198C50.6068 13.7387 50.7602 13.6009 50.9571 13.5065C51.1565 13.4096 51.4429 13.3254 51.8162 13.2539C52.32 13.1595 52.669 13.0715 52.8633 12.9899V12.8827C52.8633 12.6761 52.8122 12.5294 52.7099 12.4426C52.6076 12.3533 52.4146 12.3087 52.1308 12.3087C51.939 12.3087 51.7894 12.347 51.682 12.4235C51.5746 12.4975 51.4877 12.6289 51.4212 12.8177ZM52.8633 13.6902C52.7253 13.7361 52.5066 13.791 52.2075 13.8547C51.9083 13.9185 51.7127 13.981 51.6206 14.0423C51.48 14.1417 51.4097 14.268 51.4097 14.4211C51.4097 14.5716 51.4659 14.7017 51.5784 14.8114C51.6909 14.9211 51.8341 14.976 52.008 14.976C52.2023 14.976 52.3877 14.9122 52.5642 14.7847C52.6946 14.6877 52.7802 14.5691 52.8211 14.4288C52.8493 14.3369 52.8633 14.1622 52.8633 13.9045V13.6902Z" fill="white"/>
<path d="M56.02 15.6419H54.9422V11.5778H55.9432V12.1556C56.1146 11.8826 56.268 11.7028 56.4035 11.616C56.5416 11.5293 56.6976 11.4859 56.8714 11.4859C57.1169 11.4859 57.3534 11.5535 57.581 11.6888L57.2473 12.6263C57.0658 12.509 56.897 12.4503 56.741 12.4503C56.5902 12.4503 56.4623 12.4924 56.3575 12.5766C56.2526 12.6582 56.1695 12.8075 56.1082 13.0243C56.0494 13.2412 56.02 13.6953 56.02 14.3867V15.6419Z" fill="white"/>
<path d="M58.0106 15.6419V10.0317H59.0884V13.009L60.3502 11.5778H61.6773L60.285 13.0626L61.777 15.6419H60.6149L59.5908 13.8165L59.0884 14.3407V15.6419H58.0106Z" fill="white"/>
<path d="M64.7802 14.3484L65.8542 14.5283C65.7161 14.9211 65.4975 15.2209 65.1983 15.4276C64.9017 15.6317 64.5297 15.7337 64.0822 15.7337C63.3739 15.7337 62.8497 15.5028 62.5096 15.0411C62.2411 14.6711 62.1069 14.2043 62.1069 13.6404C62.1069 12.9669 62.2833 12.4401 62.6362 12.06C62.9891 11.6773 63.4353 11.4859 63.9748 11.4859C64.5808 11.4859 65.059 11.6862 65.4093 12.0867C65.7596 12.4847 65.9271 13.0958 65.9117 13.9198H63.2115C63.2192 14.2387 63.3061 14.4874 63.4723 14.666C63.6385 14.8421 63.8457 14.9301 64.0937 14.9301C64.2624 14.9301 64.4044 14.8842 64.5194 14.7923C64.6345 14.7005 64.7214 14.5525 64.7802 14.3484ZM64.8416 13.2616C64.8339 12.9503 64.7534 12.7143 64.6 12.5536C64.4466 12.3903 64.2599 12.3087 64.04 12.3087C63.8047 12.3087 63.6104 12.3942 63.457 12.5651C63.3036 12.736 63.2281 12.9682 63.2307 13.2616H64.8416Z" fill="white"/>
<path d="M68.6618 11.5778V12.435H67.9254V14.0729C67.9254 14.4045 67.9317 14.5984 67.9445 14.6545C67.9599 14.7081 67.9918 14.7528 68.0404 14.7885C68.0916 14.8242 68.1529 14.8421 68.2245 14.8421C68.3242 14.8421 68.4687 14.8076 68.6579 14.7387L68.75 15.573C68.4994 15.6801 68.2156 15.7337 67.8985 15.7337C67.7042 15.7337 67.529 15.7018 67.373 15.638C67.2171 15.5717 67.102 15.4875 67.0278 15.3855C66.9562 15.2809 66.9064 15.1406 66.8783 14.9645C66.8552 14.8395 66.8437 14.5869 66.8437 14.2068V12.435H66.349V11.5778H66.8437V10.7703L67.9254 10.1427V11.5778H68.6618Z" fill="white"/>
<defs>
<linearGradient id="paint0_linear_3011_12235" x1="43.2422" y1="20.3128" x2="47.9283" y2="-25.7813" gradientUnits="userSpaceOnUse">
<stop offset="0.242966" stop-color="#231F20"/>
<stop offset="1" stop-color="#62C9A9"/>
</linearGradient>
</defs>
</svg>
